<svg version="1.1"
                   xmlns="http://www.w3.org/2000/svg" xmlns:xlink="http://www.w3.org/1999/xlink" xmlns:a="http://ns.adobe.com/AdobeSVGViewerExtensions/3.0/"
                   x="0px" y="0px" width="535.3px" height="536.4px" viewBox="0 0 535.3 536.4" enable-background="new 0 0 535.3 536.4"
                   xml:space="preserve" class="img-responsive visible-md-block visible-lg-block">
                <title>Carte des régions</title>
                <g id="Regions_1_">
                  <g id="aquitaine" class="showSingle active" target="1">
                    <polygon fill="#C6C6C6" stroke="#FFFFFF" stroke-width="0.25" stroke-miterlimit="10" points="141.1,288.6 140,287.1 138.3,284.8 
                      137.2,285.5 138.3,289.9 140.2,292.6 142.1,294.9 142.7,297 142.1,297.6 143,299.4 144.4,298.3 145.3,295.2 144.4,293 143.8,289 
                          "/>
                    <polygon fill="#C6C6C6" stroke="#FFFFFF" stroke-width="0.25" stroke-miterlimit="10" points="136.5,277 139,277.9 140.9,279.5 
                      143.4,280 143.8,278.5 141.3,276.2 138.8,275.8 137.1,275.8 137.2,274.7 135.4,275.6 133.9,274.9 134.8,273.9 133.9,273.5 
                      132.1,273.9 131.6,275.6 134.2,277.9     "/>
                    <path fill="#C6C6C6" stroke="#FFFFFF" stroke-width="0.25" stroke-miterlimit="10" d="M294.9,309.2l-2.1-1.7l-3.2-2.5l0.4-2.1
                      l4-4.6l4-4.4l-0.4-3.5l-2.1-2.3l-0.4-2.1l1.2-1.2l-1.7-5.1l-4.2-4.2l-1.2-1.4c0,0-1.2,0-1.7,0c0.7,0-2.1-1.7-2.1-1.7l0.2-1.4
                      l-3-2.8l-3.4-0.4l-4.2,1.9l-4.4-2.5l-8,1.4l-1.4,1.4l-5.3,0.4l-1.7-1.4l-5.7,4.6l-2.5-3l-3.4,1.2l-2.8-1.1l0.2-3l-3.4-5.3
                      l-1.1-0.2l-5.8-6.1l1.1-4.4l-2.8-3.2l-1.7-4.2l-3.4-4.4l-0.7-3.5l-5.1-2.3l-0.2,2.3l-2.3,0.4l-1.2,1.2l-5.8-0.9l0.2-4l-2.1-1.9
                      h-3.7l-1.9-0.2l0.7-1.4l-5.1-4.8l-1.1-0.7l-3.4,3.5l-2.3-0.2l-1.4,0.7l-4.2-0.2l-3-0.4l-3,2.1l-2.3-1.2l-2.3,0.4l-1.2,1.7l1.4,2.3
                      l-3,1.1l-10.3,0.7l2.1,2.3v1.4l3.5,4.2h1.4l0.2,1.2l-1.7,2.1l1.4,2.5l2.1,6.7l1.4,1.1l-0.2,4.4l-2.1,1.7l0.2,6.9l2.1-1.9l2.1,1.7
                      l-3,2.8l-4.6,0.4l-1.7,0.9l-3.5-0.9h-3.7l1.5-2.7v-2.1l-2.5,1.9l-1.2,0.9l-4,1.7l-0.2,3.2l-3,2.1l-1.2,2.8l0.4,1.9l3.2,4l1.9,3.5
                      l-1.9,1.2l1.9,0.7l-0.4,1.7l3,0.2l-2.8,1.4l0.7,1.4l-2.1,3.7c0,0-1.7-1.9-1.7-0.9c0,0.9,0,2.5,0,2.5l0.9,0.2l-0.2,1.7l-2.1-0.9
                      l-1.9,0.9l-1.2,4.6l6.1,4.2l10.7,10.1l0.9,2.1l3.7,6.9l0.2,1.4l0.9,8.4l1.7,4.4l1.7,1.7l1.9,1.4l-1.4,0.4l1.2,1.7l-0.2,1.7
                      l-1.4-1.4l-2.8-3.1l-2.3-3.2l-0.7-4.8l-2.1-8.2l-3.5-5.7l-6.7-6.9l0.9-1.9l-0.9-1.9l-2.1,0.2v1.7l-1.7,1.4l-0.2,3
                      c0,0-1.4,14.1-3.2,24.1c-1.9,10.1-2.3,18.5-3.5,21.5c-1.2,2.8-0.9,5.3,0,4.8c0.9-0.4,1.7-4,1.7-4l3.2-4.8l4.2,3.5l0.7,1.4l1.4,1.4
                      l0.2,0.9h-5.8l-1.7-0.4l-3.2,5.1l-0.4,1.2l0.4,3.7c0,0-7.2,43-12.6,53.2l-2.1,2.8l-1.7,2.1l-1.2,1.9l-3.2,2.3l-4.4-0.2l0.2,1.7
                      l2.8,3.5l3.5,0.2l0.2,3l1.7,1.2l3-1.2l2.3,0.9l2.8,0.9v1.4l-1.7,1.2l-0.9,4.4l-1.9,2.1l0.2,1.7l3.2,1.4l2.1-0.4v-3.2l1.7-0.4
                      l0.9,0.9v1.9l4.4,0.9l2.1,1.7l3-0.2l4.6,4.2l2.3,0.2l5.8-0.7v4.4l3.2,2.3l3.2,4h1.9l1.2-2.3l3,2.3l3.2-2.3h2.8l-0.4-4.2l0.4-5.1
                      l2.1-3l1.9-0.2l1.2-4.2h1.9l4-3.5l1.4-4.2l-1.2-2.1l1.4-2.1l1.9,0.4l-1.4-3.2l0.2-3.5l-2.3,2.3l-1.9-0.9l2.5-3.7l-0.9-3.7
                      l-1.7-0.4l-0.2-2.1l-1.9-0.4H180l0,0l-1.7-1.9l1.7-2.5l-0.4-2.5l1.2-0.7l0.9-8.8l-0.7-1.4l2.8-1.7l4.6-3l1.7,1.4l-0.9,0.7l0.4,1.7
                      l2.8,0.7l0.4-3.2l0.9-1.2h1.7l1.7-0.9c0,0,3.2-0.7,4-0.7c0.7,0,4,0.2,4,0.2l4-2.1l3.7-0.4l1.4-1.4l3.2,1.9l3.7-1.1l0.9-1.9
                      l5.7-1.7l-1.4-1.9l1.9-2.1l1.7-3.5l-3.7-1.9l1.7-3l0.7-1.9l2.1,1.7l4-0.9l-3.5-8l0.2-2.3h3.2l1.9-1.9l3-2.1l-0.4-2.5l7.4-4.8
                      l-0.4-2.1l5.3-4.8l-0.2-6.7l-1.2-1.9l1.4-1.9l3.5-0.4l1.7,0.4h2.5l1.7,1.7l1.7,2.8l2.3,2.5h3.5l3-4l2.1,0.9l2.8-0.2l2.3-2.5
                      l-0.7-4.4l1.7,0.2l4-6.5l-1.9-0.9l-0.4-2.5l7.8-4.6l1.2-4l2.1,0.9h1.9l1.2-1.7l-1.2-1.4l1.2-2.3l-0.2-3l0.7-1.2l-1.9-3.2l-0.7-3
                      l2.5-0.9L294.9,309.2z"/>
                  </g>
                  <g id="loire">
                    <polygon fill="#C6C6C6" stroke="#FFFFFF" stroke-width="0.25" stroke-miterlimit="10" points="106.6,230.2 106.2,227.9 
                      104.8,227.7 103.2,228.6 104.1,230.4 106.2,231.6 109.9,234.8 109.2,232.7     "/>
                    <polygon fill="#C6C6C6" stroke="#FFFFFF" stroke-width="0.25" stroke-miterlimit="10" points="99.5,243.6 99,245.7 102,246.8 
                      103.2,247.1 103.9,245.5 100.5,243.4     "/>
                    <polygon fill="#C6C6C6" stroke="#FFFFFF" stroke-width="0.25" stroke-miterlimit="10" points="228.1,169.4 229.5,169.1 231.8,168 
                      230.8,166.8 228.1,165.9 225.1,166.1 221.1,161.1 219.4,162.6 212.1,158 208.9,155 207,149.1 201.5,150.4 201.3,152.7 
                      194.6,153.9 194.4,151.6 194.4,150.4 192.3,150.8 190.9,148.5 191.5,144.7 189.6,143.5 187.7,145.8 183.7,148.1 179.1,147.2 
                      176.8,148.7 174.7,148.5 174.7,150.8 171.7,151.4 170.9,148.9 169.4,149.5 169.4,151.2 168.2,151.6 166.5,149.7 165,149.7 
                      164.2,147.2 163.3,146.2 160,145.8 158.3,146.8 155.4,147.4 154.5,152.5 155.7,155.7 153.6,160.3 155.7,168.7 155.5,172.4 
                      156.6,175.2 151.6,180 152.4,181.9 148.8,186.3 146.9,188.2 141.9,184.2 138.3,184.4 138.1,186.5 132.6,189.5 129.3,192.6 
                      124.7,191.8 120.5,193.4 118.4,193.4 115.4,194.7 114.2,196.4 113.6,200.2 111,203.6 107.3,202 105,204.1 102.8,204.3 100.5,206 
                      100.4,207.3 98.4,207.1 96.7,209.2 94.9,208.7 97.4,213.2 96.3,213.8 94.6,214.5 98.4,216.6 100.9,216.3 103,216.8 104.8,218.4 
                      108.5,216.3 110.6,213.8 117.8,213.8 121.9,215.9 125.1,219.3 121.3,218.7 116.7,216.1 111,216.6 110.4,218.2 110.6,221.4 
                      110.4,222.6 107.6,222.6 107.6,224.3 115,227.5 116.5,229.8 116.1,232.5 110.8,238 111,241.6 115.2,246.4 116.5,247.4 
                      118.8,248.7 119.8,250.8 122.2,255.6 122.8,259.2 124.3,259.8 124.9,261.5 128.7,264.7 133.1,265.7 135.4,267 136.3,269.1 
                      140.7,269.7 141.7,271.6 145.3,273.3 145.7,271.4 149.7,271.8 153.6,270.1 155,269.3 157.5,267.4 157.5,269.5 156.2,272.3 
                      160,272.3 163.6,273 165.2,272.3 169.8,271.8 172.8,269.1 170.7,267.4 168.6,269.3 168.4,262.4 170.5,260.7 170.7,256.3 
                      169.2,255.2 167.1,248.5 165.6,246 167.3,243.9 167.1,242.6 165.6,242.6 162.1,238.4 162.1,236.9 160,234.6 170.3,234 173.2,233 
                      171.7,230.7 173,228.9 175.3,228.6 177.6,229.8 180.6,227.7 183.5,228.1 187.7,228.3 189.2,227.7 191.5,227.9 194.8,224.3 
                      195.9,224.9 196.9,222.4 196.9,218.4 196.9,215.5 200.8,212.4 201.1,208.7 203.3,204.3 202.2,203.3 201.8,201.6 204.5,198.9 
                      208.3,200.8 210.2,201.4 210.8,200.6 208,198.5 208.7,197.4 210.8,198.1 214.4,198.1 219.4,194.3 217.7,193.2 217.7,192.3 
                      218.6,191.8 222.1,190.7 224.9,187.7 225.3,183 227.2,182.5 228.5,178.9 228.5,176.8 229.1,175.2 226.5,174.5 227.4,171.4     "/>
                  </g>
                  <path id="normandie" fill="#C6C6C6" stroke="#FFFFFF" stroke-width="0.25" stroke-miterlimit="10" d="M264,101.2l-3.5-4.2
                    l1.2-0.9l0.2-2.1l0.4-2.3l-1.7-0.9l0.9-2.8l-1.7-0.9c0,0-0.7-1.7-0.9-2.3c-0.2-0.7,1.9-3,1.9-3l-0.2-1.7l-1.9,0.7l-0.9-0.9l4.2-3.2
                    l-1.4-5.1l-4.4-8.2l-3.2-2.1l-4.8-2.5l-6.5,5.5l-5.8,2.5l-2.8-0.4l-5.3,2.1l-8.8,1.1l-7.8,5.1l-5.3,2.1l-3,5.1l-2.8,7.2l2.1,1.2
                    l0.7,0.9l-1.2,0.2h11.8l-5.3,2.8l-3.4-0.7l-2.3,0.9l-6.9,5.5l-4.8,0.9l-2.5-0.2l-3.2-2.1l-17.8-1.7l-2.8-1.7l-2.3-1.2l-4.6,0.7
                    l-1.4,3.4l-2.7-0.8l0.2-2.3l0.7-2.3l-2.8-4l-2.5-3l4-3.7l-0.4-3.2l-2.1-1.9l-4.2-1.2l-4.6,2.8l-1.7-0.3l-1.9,1.2l-1.7-1.2l-2.1-0.4
                    l-6.1-3.4l-1.9-0.4l-0.9,1.2v1.4l3.5,3v4l-1.9,1.9l0.4,2.1l1.2,1.9l0.7,4.8l1.4,0.4l1.9,3l1.9,3.7l1.2,2.8h1.4l-0.2,2.1l0.4,1.7
                    l-1.7,2.8l0.4,1.7v3l0.4,1.7h1.6l-0.4,2.8l0.7,1.2l-1.9,5.1l1.4,2.3v2.5l-0.7,1.4l3.5,3.5l4-0.7l-0.4,1.9l-3.7,1.9l-3.7-0.2
                    l1.4,2.3l1.1,5.3l5.5,1.9l3-3.4l2.3,0.9h3.5l1.4,1.9l3-0.7l1.7-1.1l3.4,0.4l0.9,1.1l0.9,2.5h1.4l1.7,1.9l1.2-0.4v-1.7l1.4-0.7
                    l0.9,2.5l3-0.7v-2.3l2.1,0.2l2.3-1.4l4.6,0.9l4-2.3l1.9-2.3l1.9,1.2l-0.7,3.7l1.4,2.3l2.1-0.4v1.2l0.2,2.3l6.7-1.2l0.2-2.3l5.5-1.2
                    l1.9,5.8l3.2,3l7.4,4.6l1.7-1.4l4,5.1l3-0.2l-1.9-5.1L226,158l2.1-2.3h3.5l2.5-3.4l-1.4-2.1l0.9-1.7v-2.3l-3-1.9l-2.8-2.5v-3.5
                    l3.7-3.2l6.5-0.4l5.1-1.2l2.3,0.7l3.5-0.7l0.2-2.1l3.5-4.4v-3.2h2.3l0.2-3.4l-2.8,0.9l-1.1-3.4l4.8-3l4-5.1l0.2-3.5l1.2-1.4
                    l2.1-0.4l1.2,0.7l-0.2-1.4L264,101.2z"/>

                  <path id="alsace" fill="#C6C6C6" stroke="#FFFFFF" stroke-width="0.25" stroke-miterlimit="10" d="M501.3,111.7l-2.8-1.7l-0.7-2.1
                    l-1.2-0.4l-3.2,2.3l-2.3-1.7l-1.9,1.4l-4.2-0.9l-5.3-3l-0.7-2.5l-4.6,0.7l-1.4,2.8h-6.7l-1.7-1.4l-2.5,0.4l-0.7-3.4l-6.7-1.4
                    l-0.4,3.7h-2.3l-2.8-1.7l-1.2-3l-2.5-4l-1.7-4l-4.8-4l-3.7-0.2l-5.3-2.3l-4.8,4.4l-2.3,0.2l-0.9-0.7l-0.9-2.5l-4.1-0.2l-1.7-2.8
                    l-6.5,3.2h-3l-1.2,0.2l-4.2-6.1l-2.1,0.7l-3.2-4.6l-3.2-0.4l-6.1-5.8l-3.7-0.4l-1.9,0.9l-1.2-0.4l0.7-0.7l0.4-2.3l-0.4-0.7l0.2-0.7
                    v-2.5l-3.7-2.1l2.3-6.5l0.2-4l-1.9-0.7l-4.8,3.7l-2.5,6.3l-2.3,1.7l-6.7,0.7l-2.8-0.9h-3.7l0.2,1.9l0.9,2.8l-0.4,1.4l-0.2,5.7
                    l-4.6,8.4l-2.1-0.4v3.2l-0.2,4.2v4.6l1.2,0.9l-0.9,2.1l-4.6-1.2l-1.7,1.4l0.9,0.9l-0.7,0.9l-1.7-0.2l-5.1,1.1l-0.9,3l1.9,4.2
                    l1.9,1.2l-0.9,2.3l-2.1-0.7l-1.9,1.2v2.3l1.7,0.7l1.1,4.2l-1.2,1.2l-0.4,3l-2.8,1.9l-1.7,4.6l-1.2,1.4l-0.9,3.7l1.7,2.1l-0.9,4h3.5
                    l0.2,2.3L330,144l-0.4,1.9l-2.5,0.7l1.4,3l-2.1,1.2l-0.2,4l0.9,2.8l2.8-1.7l4.6,7.4l-1.7,2.8l1.4,0.9l1.2-0.9l1.7,1.4v0.9l2.8-1.2
                    l1.4,1.4v2.5l1.4,2.5l1.9-0.2l-0.2,2.8h2.1c0,0-0.7,2.1,0,3c0.7,0.9,1.7,1.2,1.7,1.2l6.5-1.9l3.5-0.2l1.9,0.9h1.2l0.9-1.9l3.5-0.4
                    l4.8,0.4l0.7-3l3.2-0.9l2.3,0.7l3,0.2l1.2,1.9l1.9,0.7v3.2l1.4,1.4l1.4-1.7l0.4,2.8c0,0,1.7-0.2,1.9,1.4c0.2,1.7-1.9,5.3-1.9,5.3
                    l8.8,6.7l0.7-2.1l3,3l-0.9,2.3l1.2,0.9l2.3-1.9l2.8-0.4v-2.3l2.1-2.3l4-0.7l1.2,0.4l1.9-0.7h1.9l2.5-4.6l-2.1-1.4l0.9-2.5l1.4-1.4
                    h1.9l0.4-1.7l1.9-0.9l0.7-1.7l0.2-2.3l0.7-1.7l1.2,0.2l0.2,3.2l2.5-1.9l0.9-3.7l2.1-1.7l1.4,0.9l-0.2,3l2.1,2.1h2.5l2.1-1.7
                    l3.7-0.7l3.5,3.5l4.4-2.8l3.5,3.5l5.7,4.4l1.9-2.3l0.4,3.7l3.5,0.2l2.8,4.4l-1.4,4.4l1.4,2.1l1.9,0.2l1.9,1.9l1.7,3.5l1.4,2.8
                    l4.2,0.9l6.1-1.7l-0.7-0.9v-1.2l4-4.4l-0.2-2.8l1.7-2.3c0,0-1.9-3-1.9-3.7c0-0.7,0.9-2.3,0.9-2.3l-0.4-1.9l0.7-5.3l1.2-3.2l0.2-3.2
                    l-1.4-2.1l-0.7-4l1.4-4.6l3.7-8.6L494,148l1.7-7.6l-0.2-4.8l4.4-6.5V127l0.9-2.5l2.8-1.9l4.8-11.1L501.3,111.7z"/>
                  <g id="bourgogne" class="showSingle" target="2">
                    <path fill="#C6C6C6" stroke="#FFFFFF" stroke-width="0.25" stroke-miterlimit="10" d="M467.5,204.3l0.4-3.2l5.8-1.1
                      l-1.7-3.5l-1.9-1.9l-1.9-0.2l-1.4-2.1l1.4-4.4l-2.8-4.4l-3.5-0.2l-0.4-3.7l-1.9,2.3l-5.7-4.4l-3.5-3.5l-4.4,2.8l-3.5-3.5l-3.7,0.7
                      l-2.1,1.7h-2.5l-2.1-2.1l0.2-3l-1.4-0.9l-2.1,1.7l-0.9,3.7l-2.5,1.9l-0.2-3.2l-1.2-0.2l-0.7,1.7l-0.2,2.3l-0.7,1.7l-1.9,0.9
                      L420,182h-1.9l-1.4,1.4l-0.9,2.5l2.1,1.4l-2.5,4.6h-1.9l-1.9,0.7l-1.2-0.4l-4,0.7l-2.1,2.3v2.3l-2.8,0.4l-2.3,1.9l-1.2-0.9l0.9-2.3
                      l-3-3l-0.7,2.1l-8.8-6.7c0,0,2.1-3.7,1.9-5.3c-0.2-1.7-1.9-1.4-1.9-1.4l-0.4-2.8l-1.4,1.7l-1.4-1.4v-3.2l-1.9-0.7l-1.2-1.9l-3-0.2
                      l-2.3-0.7l-3.2,0.9l-0.7,3l-4.8-0.4l-3.5,0.4l-0.9,1.9h-1.2l-1.9-0.9l-3.5,0.2l-6.5,1.9c0,0-0.9-0.2-1.7-1.2c-0.7-0.9,0-3,0-3h-2.1
                      l0.2-2.8l-1.9,0.2l-1.4-2.5v-2.5l-1.4-1.4l-2.8,1.2v-0.9l-1.7-1.4l-1.2,0.9l-1.4-0.9l1.7-2.8l-4.6-7.4l-2.8,1.7l-0.9-2.8l-1.2-0.2
                      l-2.5,1.9l-1.9-0.2l-2.3,0.7l-3-1.9l-2.1,0.7L313,158l-1.7,3.5l1.9,0.7l-0.4,1.9l-2.8,4.4l2.5,2.3l0.4,1.7l3.5,4.4l-0.2,3l-5.3,4.2
                      l0.9,1.7l1.2,0.4l-0.4,1.4l-0.7,2.5l-4,0.7l-2.3-0.7l-0.9,0.9l0.7,3.5l2.3,0.7l2.1,2.5l0.9,4.4l-1.7,1.4l-1.9,2.1l2.5,6.5l-1.4,4.8
                      l3.5,3.7l1.7,5.3l1.4,7.6l1.4,2.5l-0.9,3l-0.4,4.6l-1.9,2.1l0.9,2.3l1.9,1.7l3,2.8l4.2-1.9l1.9,1.4l1.9-1.7l2.8,1.9l-0.7,2.1h0.9
                      l1.4-1.4l2.5-0.2l-0.7-2.8l3-0.9l1.2,2.3l1.9,1.7l1.9,3.7l0.9,0.4l0.2,4.2l8.2,1.9l0.9,1.2v5.8l0.4,2.1l-0.4,1.7l-2.3-0.7v2.1h-1.2
                      l-0.2,1.2l0.9,2.1l1.2,2.1c0,0,5.7,0.4,7.4,0.4c1.9,0,4-0.4,4-0.4l1.4,1.9l2.1-0.4l0.7-1.7l1.7,0.4l0.4-1.4l0.2-4l4.8-0.4l1.9-0.4
                      l1.2,1.4l3.2-2.5l2.3,1.7l-1.2,1.9l0.2,2.5l1.7,1.2l2.1,0.4l1.2-4.4l2.1-2.3l0.2-1.9l-0.4-1.9l3-9.2l2.1-0.7l1.4,0.9l4.8-0.9
                      l0.9,1.4l4.2,2.1l0.7,2.3l2.1,0.4l0.2,1.9l1.7,1.7l1.2-0.7l2.1,0.9l0.7,1.4l-1.2,1.4l3,0.4l3-3.5h2.5l1.2,3l5.3,0.7l2.8-3l2.8-4.2
                      l2.3-2.8l0.2-3.2l3-3l0.2-1.7l-1.4-1.4l4.6-6.5l8.4-6.3l0.4-4.8l-0.7-2.5l8.8-4.8v-2.5l4.8-4.6l7.4-13.2l-5.7-0.2L467.5,204.3z"/>
                  </g>
                  <g id="centre" class="showSingle" target="4">
                    <polygon fill="#C6C6C6" stroke="#FFFFFF" stroke-width="0.25" stroke-miterlimit="10" points="316.7,176.6 
                      313.2,172.2 312.7,170.5 310.2,168.2 308.3,167.8 306.2,168 304.5,168.9 303.9,167 300.5,169.7 298.6,168.9 290.8,169.1 
                      291.7,167.6 293.8,164.9 291,163.2 289.4,159.6 287.3,159 285,157.3 283.1,159.4 280.1,158 278.7,158.5 273.2,160.4 273.2,157.5 
                      272,156 272.1,153.9 270.5,151.6 267.9,152 262.7,147.2 262.5,143.5 257.2,137.7 257.5,134.6 256.2,132.9 256.4,128.7 255.4,126.4 
                      254.9,123.5 252.6,123.5 252.6,126.6 249.1,131 248.9,133.1 245.2,133.8 242.9,133.1 237.9,134.4 231.4,134.9 227.6,138 
                      227.6,141.6 230.4,144.1 233.3,146 233.3,148.3 232.5,150 233.9,152 231.4,155.5 227.8,155.5 225.8,157.8 226.2,160.9 228.1,165.9 
                      230.8,166.8 231.8,168 229.5,169.1 228.1,169.4 227.4,171.4 226.5,174.5 229.1,175.2 228.5,176.8 228.5,178.9 227.2,182.5 
                      225.3,183 224.9,187.7 222.1,190.7 218.6,191.8 217.7,192.3 217.7,193.2 219.4,194.3 214.4,198.1 210.8,198.1 208.7,197.4 
                      208,198.5 210.8,200.6 210.2,201.4 208.3,200.8 204.5,198.9 201.8,201.6 202.2,203.3 203.3,204.3 201.1,208.7 200.8,212.4 
                      196.9,215.5 196.9,218.4 196.9,222.4 195.9,224.9 201,229.8 200.3,231.2 202.2,231.4 205.9,231.4 208,233.4 207.9,237.4 
                      213.8,238.1 215,236.9 217.3,236.5 217.5,234.2 222.6,236.5 223.2,240.1 226.5,244.5 228.3,248.7 230.9,251.8 229.9,256.3 
                      235.8,262.4 236.9,262.6 240.2,267.8 240,270.7 242.7,271.8 246.1,270.5 248.7,273.5 254.3,268.9 256,270.3 261.2,270 262.7,268.4 
                      270.7,267 275.1,269.5 279.3,267.6 282.7,268 285.2,263.4 290.3,262.8 296.5,261.5 297.5,256.9 296.8,254 299.3,251 301.2,249.1 
                      306.8,248.9 310.2,245.3 313.5,245.5 315.4,243.4 315.8,238.8 316.7,235.8 315.3,233.4 313.7,225.8 312.1,220.5 308.5,216.8 
                      310,211.9 307.5,205.4 309.3,203.3 311,201.8 310.2,197.4 308.1,194.9 305.8,194.3 305.1,190.7 306,189.9 308.3,190.5 312.3,189.9 
                      313,187.4 313.3,185.8 312.1,185.4 311.2,183.8 316.5,179.6   "/>
                  </g>
                  
                  <g id="bretagne" class="showSingle" target="3">
                    <polygon fill="#C6C6C6" stroke="#FFFFFF" stroke-width="0.25" stroke-miterlimit="10" points="1.6,137 0.1,138.2 0.5,139.7 
                      2.4,139.1 4.1,138 3.7,136.7     "/>
                    <polygon fill="#C6C6C6" stroke="#FFFFFF" stroke-width="0.25" stroke-miterlimit="10" points="68,205 66.9,206.7 68.4,211.7 
                      74.9,213.4 75.5,212.4 76.8,211.3 70.1,206     "/>
                    <polygon fill="#C6C6C6" stroke="#FFFFFF" stroke-width="0.25" stroke-miterlimit="10" points="59.4,188.8 59.2,189.9 62.1,191.8 
                      63.1,190.9 61.8,189.3     "/>
                    <polygon fill="#C6C6C6" stroke="#FFFFFF" stroke-width="0.25" stroke-miterlimit="10" points="156.6,175.2 155.5,172.4 
                      155.7,168.7 153.6,160.3 155.7,155.7 154.5,152.5 155.4,147.4 153.9,145.5 150.3,145.5 148,144.7 145.1,148.1 139.6,146.2 
                      138.6,140.9 137.1,138.6 134.6,138.8 130.7,139.7 128.7,139.5 126.8,137.4 126.1,132.8 123.3,132.8 120.7,134.4 119.4,137 
                      121.1,138.6 121.7,141.4 122.4,143 121.7,143.9 121.1,144.7 120.9,143 119,137.7 116.3,136.7 114.2,137.7 113.8,139.1 
                      111.7,138.8 110.8,136.7 109.2,137.5 108.9,135.2 110.4,133.3 108.3,133.3 105.5,135.1 103.2,135.1 102.2,137 99.5,138 
                      95.1,142.4 93.2,140.5 89.6,137.5 89.8,134 86.3,129.8 86,127.1 82.4,127.1 81.6,126 82.4,124.5 80.5,124.3 80.3,123.1 81.6,121 
                      76.6,123.1 75.4,121.8 73.4,122.7 67.3,123.3 66.5,122.4 64.1,122.7 61.7,124.7 61.3,126.6 62.5,128.5 61.5,129.1 61.3,131.5 
                      58.7,131.2 58.1,130.2 52.8,128.7 50.9,130.2 50.9,133.3 49.5,133.1 48.8,131 47.4,132.6 46.1,127.3 42.8,128.9 38.6,128.3 
                      37.3,130 34,130.5 33.3,129.1 30.3,129.6 27.6,131.2 25.3,130.6 23.8,131.5 24.1,132.3 25.3,133.3 22.6,133.3 24.9,134.2 
                      24.7,135.2 21.8,134.2 18.2,134.4 15.9,137.4 15.7,139.7 13.9,140.7 13.9,145.8 14.8,147.9 16.5,148.1 17.6,147 22.6,147 
                      25.5,145.8 27.8,145.3 32.4,143.5 28,146.6 26.8,147.6 27,148.9 29.6,148.9 32.4,147.9 31.9,149.5 33.5,150.4 35.2,152.3 
                      35.6,153.7 36.6,154.1 36.1,155.5 32.7,153.5 31.9,152 25.3,151.2 24.9,150 23.2,151.4 22.4,150.2 22.4,148.5 21.1,150.2 
                      19.4,150.6 20.3,152.5 22.4,152.5 21.3,154.4 21.3,158.3 22.4,157.1 23.8,154.1 26.8,154.1 31,156.7 32.7,159.9 30.6,162.9 
                      25.9,162.6 15.9,162.7 13.7,164 14.8,165.3 18.8,165.7 20.7,167.4 21.5,166.1 27.3,172.4 28.2,176.6 25.7,178.9 26.2,180.7 
                      28.2,179.6 33.5,180.2 35.6,178.1 35.8,175.6 36.1,173.3 38.4,171.4 37.1,174.3 37.3,176.4 40,178.4 41.9,177.5 41.5,175.4 
                      43.6,175.8 45.7,177.7 45.5,179.1 47.8,181.9 50.3,181.9 51.6,180.7 53.2,181.4 53.7,182.8 59.4,184.2 60.2,186.5 62.5,188.4 
                      65.7,186.5 67.6,186.5 64.8,188.8 67.8,189.5 70.3,191.3 73.2,188.2 73.6,189 71.5,192.3 72.2,193.7 73.6,195.5 73.6,201 
                      75.4,203.1 76.4,201.4 74.5,199.3 74.9,195.8 77.2,196.6 77.2,193.2 78.9,195.1 80.3,197 81,194.9 80.1,192.3 81,191.6 
                      83.3,195.3 86.5,194.3 87.5,194.1 88.1,192.8 89.4,193 89.1,194.1 90.2,194.9 91.1,194.3 91.7,195.3 90.2,197 89.8,198.5 
                      89.6,199.3 86.3,199.3 84,197.8 82.2,197.8 82.6,198.9 85.8,201.3 90.7,201.4 91.9,200.6 93.2,201.3 94,199.7 94.9,200.6 
                      99.3,200.4 100.5,201.4 102.4,201.4 102.4,202.7 99.3,202.9 99.3,203.9 100.5,206 102.8,204.3 105,204.1 107.3,202 111,203.6 
                      113.6,200.2 114.2,196.4 115.4,194.7 118.4,193.4 120.5,193.4 124.7,191.8 129.3,192.6 132.6,189.5 138.1,186.5 138.3,184.4 
                      141.9,184.2 146.9,188.2 148.8,186.3 152.4,181.9 151.6,180     "/>
                  </g>
                  <g id="paca">
                    <polygon fill="#C6C6C6" stroke="#FFFFFF" stroke-width="0.25" stroke-miterlimit="10" points="508.3,393.5 506,392.8 503.4,393.8 
                      500.7,394.3 498.6,396.1 492.3,395.1 487.7,394.3 484.6,391.7 481.2,389.6 480.5,386.5 475.9,382.3 475.9,379.4 478.2,379 
                      477.7,377.1 475.1,375.3 474.7,372.2 477.7,367.2 478,364 479.7,362.5 482.3,363.4 482.8,361.9 478.9,356.7 477,353.7 
                      471.1,352.9 468.2,351.2 466.7,348.7 467.3,344.7 464.6,343.8 462.5,341.3 462.9,340.1 460.4,339 457.6,338.4 456,339.9 
                      456.8,341.7 454.8,343.4 452.4,342.6 450.9,340.1 447.2,339.6 446.3,342.6 446.1,345.4 447.8,346.1 449.9,346.1 451.1,348.9 
                      451.6,354.2 444,354.2 435.6,357.7 436.8,359.4 432.9,362.3 431.2,360.7 429.9,364.2 431.2,364.9 431.6,365.7 427,368.3 
                      424.5,367.4 423.2,368.3 423.2,372 421.7,375.5 422.6,377.5 421.3,379.4 419.9,379.2 416.2,378.7 416,380.8 417.5,382.3 
                      415.5,382.3 415.5,385 417.3,386.7 423.8,387.1 424,389.6 426.1,391 426.1,394.7 424.5,395.6 426.1,397.2 424.5,397.4 
                      422.9,395.8 421.3,398.2 419.6,399.8 416.9,399.8 415.5,397.9 413.9,397.7 412.5,395.4 409.3,394.9 408.5,394.3 404.6,394.3 
                      403.2,393.5 403.9,390.3 401.4,391.2 397.4,390.7 393.2,393.6 389.6,393.5 388.4,390.5 384.5,389.6 383.3,391.9 384.1,394.7 
                      386.8,397.9 387.1,402.1 392.1,409.8 386.3,416.5 384.3,417.4 384.7,422.7 382.4,427.5 378.2,427.7 375.5,432.5 375.9,434.4 
                      373.8,435.7 371.3,438.2 368.3,439.1 368,440.9 369.7,440.5 370.1,441.7 369.7,442.8 374.1,441.7 376.4,441.5 379.3,441.2 
                      380.1,441.2 380.1,440.5 379.1,440.3 378,440.3 377.6,438.2 379.1,436.7 379.3,435.2 381.2,434.2 384.1,434.4 385.8,435.2 
                      385.8,436.5 385.2,438 385.4,438.6 386.1,439.4 385.6,440.5 384.1,440.9 382.6,440.9 381.4,440.5 381,440.7 380.8,441.4 
                      381.8,441.9 383.7,442.8 383.5,445.1 384.1,446.8 387.5,447.4 390,446.6 391.2,446.3 393.3,446.3 395.3,448.3 396.1,447.7 
                      395.3,446.8 393,444.7 391.7,443.7 392.8,443.2 394.4,445.1 397.2,446.8 397.4,445.8 395.9,444.9 395.1,443.7 394,442.6 
                      393.2,441.5 393,440.9 394,440.7 395.1,441.5 395.9,441.4 395.5,439.8 396.1,439.8 397.4,441.5 399.5,441.7 399.9,442.4 
                      401.1,444 403.2,443 403,440.7 401.8,440.3 401.6,439.1 401.8,435.2 403,436.1 405.5,436.7 407.2,440.1 408.7,438.8 410.4,439.4 
                      410.2,441.5 408.1,443.5 406,443.7 403.5,443.8 401.1,444.9 400.9,446.3 402.6,447.4 407,447.4 411.3,446.8 412.9,445.1 
                      415.2,446.8 415.5,448.6 415.9,450.4 416.2,451.6 415.2,452.7 416.2,453.9 420.5,453.7 424.5,454.1 426.8,455.6 428.9,455 
                      429.9,455.2 431,456.7 436.3,458.6 435.8,460 435.8,461.5 437.3,462 439.1,460.4 440.7,460.6 440.9,460 439.8,459.8 439.1,458.6 
                      440.2,458.1 442.1,458.8 444.2,459 444.8,459.8 446.5,460.6 447.4,459.8 448.2,459.8 448.8,461.7 448,462.5 448.2,463.2 
                      449.9,462.7 449.9,463.2 452.6,463.2 454.1,462 453.2,461.1 452.4,461.7 450.9,462.1 450.5,462.3 450.3,462 449.7,461.7 
                      449.5,461.1 449.7,459.8 450.5,458.6 453,458.1 454.5,457.7 457.6,459.4 459.4,458.8 458.7,456.2 459.9,455 464.3,454.8 
                      467.7,452.7 469.6,453.5 471.7,452.3 471.7,450.4 470.7,449.5 471.9,447.9 471.7,446 468.2,446.8 467.7,445.8 470.9,443.8 
                      474.2,438.6 477.8,438.6 480.5,436.7 481.6,434.6 482.4,433.8 482.4,432.1 482.6,430.2 485.1,430.2 486.9,430 488.6,430.4 
                      489.3,429.4 489.3,424.8 491.5,423.2 494.4,421.6 496.1,421.8 496.7,420.8 498.6,419.9 498.6,418.3 499.2,416.7 501.1,416.2 
                      501.8,416.9 506,414.2 505.3,410.7 503,407.7 503.9,406.3 505.2,406 506,404.6 509.9,400.5 510.6,395.8     "/>
                    <polygon fill="#C6C6C6" stroke="#FFFFFF" stroke-width="0.25" stroke-miterlimit="10" points="462.9,459.4 462,460.9 462.5,461.1 
                      463.1,460.9 464.6,459.6 464.6,458.8 464.1,458.8     "/>
                    <polygon fill="#C6C6C6" stroke="#FFFFFF" stroke-width="0.25" stroke-miterlimit="10" points="460.8,460.9 459.2,461.7 
                      459.2,462.5 461.7,462.1 461.7,461.1     "/>
                    <polygon fill="#C6C6C6" stroke="#FFFFFF" stroke-width="0.25" stroke-miterlimit="10" points="395.3,390.3 397.6,389.2 
                      399.5,387.3 399.9,385.9 398.2,385 396.3,384.2 394.6,384.6 393.5,386.7 392.8,389.2 393.3,390.3     "/>
                  </g>
                  <g id="languedoc" class="showSingle" target="5">
                    <path fill="#C6C6C6" stroke="#FFFFFF" stroke-width="0.25" stroke-miterlimit="10" d="M387.1,402.1l-0.2-4.2l-2.8-3.2l-0.9-2.8
                      l-4.6-3l-3.7-0.2l0.2,3l-1.9,0.2l-0.4-1.9l-2.5-0.9l-2.8,1.7l-2.3,1.9l-3.5-1.9l-2.1,1.2l-0.9-0.7v-6.7l-3-1.9l-1.7-6.7l-2.1-0.9
                      l-0.4-3l-1.4-4.2l-1.4-0.9l-0.9-2.5l-3-3.4h-3.5l-1.2-2.1l-2.5-0.2l-0.4,1.9l-4.2,2.1l-0.2-4l-1-2.4l-2.5-3l-3,3l-2.1,0.9
                      c0,0-1.7,1.9-1.7,2.8s-3-2.1-3-2.1l-1.7,0.2l0.2,5.7l-2.1,0.9l-0.4,6.1l-1.7,1.9l-1.7-2.3l-0.4-4l-1.7-1.7l-0.9-4.4l-2.3-1.2
                      l-1.4,0.4l0.7-2.8l-1.7-1.2l-5.1,4l-6.5,13.9h-4l-1.2-2.1l-5.1,0.9l-0.4,1.6l-2.5-4.8l0.4-5.8l-2.3-3v-2.8l-2.1-2.8l-2.8,0.2
                      l-2.1-0.9l-3,4h-3.5l-2.3-2.5l-1.7-2.8l-1.7-1.7h-2.5l-1.7-0.4l-3.5,0.4l-1.4,1.9l1.2,1.9l0.2,6.7l-5.3,4.8l0.4,2.1l-7.4,4.8
                      l0.4,2.5l-3,2.1l-1.9,1.9h-3.2l-0.2,2.3l3.5,8l-4,0.9l-2.1-1.7l-0.7,1.9l-1.7,3l3.7,1.9l-1.7,3.5l-1.9,2.1l1.4,1.9l-5.7,1.7
                      l-0.9,1.9l-3.7,1.1l-3.2-1.9l-1.4,1.4l-3.7,0.4l-4,2.1c0,0-3.2-0.2-4-0.2c-0.7,0-4,0.7-4,0.7l-1.7,0.9h-1.7l-0.9,1.2l-0.4,3.2
                      l-2.8-0.7l-0.4-1.7l0.9-0.7l-1.7-1.4l-4.6,3l-2.8,1.7l0.7,1.4l-0.9,8.8l-1.2,0.7l0.4,2.5l-1.7,2.5l1.7,1.9h3.2l1.9,0.4l0.2,2.1
                      l1.7,0.4l0.9,3.7l-2.5,3.7l1.9,0.9l2.3-2.3l-0.2,3.5l1.4,3.2l-1.9-0.4l-1.4,2.1l1.2,2.1l-1.4,4.2l-4,3.5h-1.9l-1.2,4.2l-1.9,0.2
                      l-2.1,3l-0.4,5.1l0.4,4.2l4.4,3.5l2.3-0.2l3.7,4.8c0,0,2.1,0.9,2.8,1.2c0.7,0.2,4.8-0.4,4.8-0.4l2.5-1.2l2.8,0.4l0.9,1.4l1.2,1.7
                      l3-3l3.5,1.4l7.4,0.4l3,1.2l0.4-0.9l-1.9-2.3l-0.2-5.7l2.1-1.7l3.7,0.2l3.5,2.1l1.4,0.9l1.9-0.7l5.7,2.5l1.9,2.8l2.1,0.7l6.1-0.9
                      l2.8,2.5l1.4,4.6l1.4-0.9l0.7-1.9l4.8,0.2l1.7,1.7l1.4-0.9l2.3,0.7l0.2,1.9l0.9,0.7v2.5l0,0l-1.7,2.8c0.9-0.4,3,0.2,3,0.2l5.1,2.1
                      l2.8,2.8c0,0,1.4,1.4,2.1,1.7c0.7,0.2,4-0.9,4-0.9l6.1-2.1l3.7-0.2l4.4,2.8l5.3,1.9h5.3l2.3-1.4l-0.7-0.7l0.9-1.4l2.8-0.7l3-1.7
                      l3.5-0.7l1.9-0.4l2.3,0.2l2.3,1.4l4-0.4l-1.9-3.2l-0.4-1.4l-1.9-0.9l-1.2-2.5l-0.9-3.4l-0.9-0.9l0.2-1.2l1.1-0.7l0.2-4.2l-0.9-1.4
                      l-3-1.4l-0.4-0.9l0.4-1.7l1.1-1.7l1.9-0.4l0.9-1.1l-0.2-2.5v-2.3l1.1-3.5l-0.9-0.2l-0.9-0.9l0.4-1.4l0.9,0.9l0.9-1.2l-0.2-0.2
                      l1.4,0.9l1.4-3.5l3.4-3.7l2.1-1.9l1.9-1.4l3.2-0.2l3.4-0.7l2.5-2.8l-0.2-0.9l-1.1-0.2l0.4-1.4l2.1-2.8l2.8-2.1l1.2,0.4L344,445
                      l-4.4,4.4v0.9l1.7-0.9l2.5-3l2.5-1.1l2.5-1.2l2.3-1.7l3.4-2.8v-0.6l-3.4,2.5l-1.4,0.7l-0.2-1.2l0.9-1.1l2.5-1.1l1.9-1.4l5.7-3
                      l-0.4,2.1l-1.9,0.7l-2.8,1.2l0.5,0.6l3.7-1.9l1.2,0.4l1.4,0.4l0.9,3l1.4,1.4h3.2l0.2-1.7l0.4-1.7l3-0.9l2.5-2.5l2.1-1.2l-0.4-1.9
                      l2.8-4.8l4.2-0.2l2.3-4.8l-0.4-5.3l1.9-0.9l1.2-1.4l4.6-5.3L387.1,402.1z"/>
                    <polygon fill="#C6C6C6" stroke="#FFFFFF" stroke-width="0.25" stroke-miterlimit="10" points="184.8,450.2 186,450 187.5,449.1 
                      187.1,447.7 186.7,446.6 185.4,447.2 186,448.1 184.8,448.9     "/>
                    <polygon fill="#C6C6C6" stroke="#FFFFFF" stroke-width="0.25" stroke-miterlimit="10" points="183.3,452.1 182.7,453.1 
                      183.9,454.4 185.6,454.1 185.4,452.1 184.4,451.6     "/>
                  </g>
                  <path id="nord" fill="#C6C6C6" stroke="#FFFFFF" stroke-width="0.25" stroke-miterlimit="10" d="M354.1,64.3l-0.2-1.9l-3.2-1.2
                    l3-3.2l-1.1-4l-1.9-0.4l-0.4-4.2l2.1-2.3l-0.4-0.7l-1.7,0.2l-1.4-3l-2.3-2.3l-1.7,0.2l-7.4-0.2l-1.4,2.3l-1.7-1.2l-0.2-4.6
                    l-2.3-3.5l-2.1-0.9l-1.9,0.9l-0.7-0.9l1.2-0.9l0.4-0.9l-2.8-0.4l-3.2,2.8l-4-4l-0.9-9l-3.7-4.8l-3.5,0.4l-4.8,3.5l-0.9,1.4
                    l-5.3-3.7l-1.1-3l-2.3-1.4l-1.9,0.9l-1.1-4l0.7-2.5l0.4-2.3l-4.2-5.3l-9,4L276,5.9l-0.9,0.2l-10.3,0.7l-5.5,1.9l-1.9,2.8l-2.3,0.9
                    l-0.4,7.4l-0.4,2.3l0.9,8.2l1.2,1.9l-1.2,1.7l-0.4,6.3l1.7,1.9l-1.2,1.4L255,48l2.8,4.4l-4.2-1.2l-5.3,8.4l4.8,2.5l3.2,2.1l4.4,8.2
                    l1.4,5.1l-4.2,3.2l0.9,0.9l1.9-0.7l0.2,1.7c0,0-2.1,2.3-1.9,3c0.2,0.7,0.9,2.3,0.9,2.3l1.7,0.9l-0.9,2.8l1.7,0.9l-0.4,2.3l-0.2,2.1
                    l-1.2,0.9l3.5,4.2l0.9,2.5l0.2,1.1l-1.9,0.4l-0.4,2.8l1.4,1.7l6.1,0.2l5.7-2.8l3.5,3l4,0.4l1.1-1.7h3.4l3.5,1.9l-0.2,1.4l1.4,1.1
                    l2.3-1.7l0.9,1.9l3.7-0.4l2.1,1.9l2.3-1.9l1.2,0.7l2.5-0.7l0.4,2.1l1.2,0.4l1.1-2.1l1.1,0.2l3-2.5l1.9,1.7l0.7,3.4l2.5,3.5l1.7,0.7
                    l2.1,3.7l2.1-0.2l4.2,5.1l1.7-4.6l2.8-1.9l0.4-3l1.2-1.2l-1.1-4.2l-1.7-0.7v-2.3l1.9-1.2l2.1,0.7l0.9-2.3l-1.9-1.2l-1.9-4.2l0.9-3
                    l5.1-1.1l1.7,0.2l0.7-0.9l-0.9-0.9l1.7-1.4l4.6,1.2l0.9-2.1l-1.2-0.9v-4.6l0.2-4.2v-3.2l2.1,0.4l4.6-8.4l0.2-5.7l0.4-1.4
                    L354.1,64.3z"/>
                  <polygon id="idf" fill="#C6C6C6" stroke="#FFFFFF" stroke-width="0.25" stroke-miterlimit="10" points="332,140.3 328.5,140.3 
                    329.3,136.3 327.6,134.2 328.5,130.5 329.7,128.9 325.5,123.9 323.4,124.1 321.3,120.3 319.7,119.7 317.1,116.2 316.5,112.7 
                    314.6,111.1 311.6,113.6 310.6,113.4 309.5,115.5 308.3,115.1 307.9,113 305.4,113.6 304,113 301.7,114.8 299.6,113 295.9,113.4 
                    295,111.5 292.7,113.2 291.3,112.2 291.5,110.7 288,108.8 284.6,108.8 283.5,110.4 279.5,110 276,107.1 270.2,109.9 264.2,109.7 
                    262.7,107.9 263.1,105.3 265.1,104.8 263.7,104.2 261.7,104.6 260.4,106 260.2,109.7 256.2,114.6 251.4,117.6 252.4,121 
                    255.2,120.1 254.9,123.5 255.4,126.4 256.4,128.7 256.2,132.9 257.5,134.6 257.2,137.7 262.5,143.5 262.7,147.2 267.9,152 
                    270.5,151.6 272.1,153.9 272,156 273.2,157.5 273.2,160.4 278.7,158.5 280.1,158 283.1,159.4 285,157.3 287.3,159 289.4,159.6 
                    291,163.2 293.8,164.9 291.7,167.6 290.8,169.1 298.6,168.9 300.5,169.7 303.9,167 304.5,168.9 306.2,168 308.3,167.8 310.2,168.2 
                    313,163.8 313.3,162 311.4,161.3 313.2,157.8 313.3,155.5 315.4,154.8 318.4,156.7 320.7,156 322.5,156.2 325.1,154.4 326.4,154.6 
                    326.6,150.6 328.7,149.3 327.2,146.4 329.7,145.8 330.1,143.9 332.2,142.6   "/>
                  <g id="auvergne">
                    <path fill="#C6C6C6" stroke="#FFFFFF" stroke-width="0.25" stroke-miterlimit="10" d="M482.4,320.5c-4.4-2.1-7.2-5.8-7.6-6.7
                      c-0.4-0.9-0.4-4.8-0.4-4.8l-5.7-2.1l-0.4-1.9l-1.9-2.1l-0.2-1.9l1.4-2.3l1.7-0.7l3.2-1.9l2.1-2.3l0.4-4.2l-1.7-3l-1.4-0.2
                      l-2.3-2.1l-1.4,0.4l-0.2-3.5l-0.4-1.4l-2.1-0.2l-0.9-1.9l0.2-3.5l1.7-1.9l0.2-2.1l-1.4-1.2l-2.1-0.9l-0.2-2.1L461,265l-2.5,0.4
                      l-3.5,0.2h-3.5l-2.1,2.5l-3.5,0.9l-1.7-0.7l-2.1,1.9l-0.4,2.8l2.8,0.9v2.5l-4.2,2.8l-1.9,1.7l-3.5-0.7l-2.1,0.9l-0.4-3.5l3-2.3
                      l1.7-1.9l-0.7-2.5l1.7-3.2l-2.5-1.4l-1.4-1.2l-2.3,2.8l-2.8,4.2l-2.8,3l-5.3-0.7l-1.2-3h-2.5l-3,3.5l-3-0.4l1.2-1.4l-0.7-1.4
                      l-2.1-0.9l-1.2,0.7l-1.7-1.7l-0.2-1.9l-2.1-0.4l-0.7-2.3l-4.2-2.1l-0.9-1.4l-4.8,0.9l-1.4-0.9l-2.1,0.7l-3,9.2l0.4,1.9l-0.2,1.9
                      l-2.1,2.3l-1.2,4.4l-2.1-0.4l-1.7-1.2l-0.2-2.5l1.2-1.9l-2.3-1.7l-3.2,2.5l-1.2-1.4l-1.9,0.4l-4.8,0.4l-0.2,4l-0.4,1.4l-1.7-0.4
                      l-0.7,1.7l-2.1,0.4l-1.4-1.9c0,0-2.1,0.4-4,0.4c-1.9,0-7.4-0.4-7.4-0.4l-1.2-2.1l-0.9-2.1l0.2-1.2h1.2v-2.1l2.3,0.7l0.4-1.7
                      l-0.4-2.1v-5.8l-0.9-1.2l-8.2-1.9l-0.2-4.2l-0.9-0.4l-1.9-3.7l-1.9-1.7l-1.2-2.3l-3,0.9l0.7,2.8l-2.5,0.2l-1.4,1.4h-0.9l0.7-2.1
                      l-2.8-1.9l-1.9,1.7l-1.9-1.4l-4.2,1.9l-3-2.8l-1.9-1.7l-0.9-2.3l-3.4-0.2l-3.4,3.5l-5.7,0.2l-1.9,1.9l-2.5,3l0.9,3l-1.1,4.6
                      l-6.3,1.2l-5.1,0.7l-2.5,4.6l3,2.8l-0.2,1.4c0,0,2.8,1.7,2.1,1.7c0.4,0,1.7,0,1.7,0l1.1,1.2l4.4,4.4l1.7,5.1l-1.2,1.2l0.4,2.1
                      l2.1,2.3l0.4,3.5l-4,4.4l-4,4.6l-0.4,2.1l3.2,2.5l2.1,1.7l0.4,4.6l-2.5,0.9l0.7,3l1.9,3.2l-0.7,1.2l0.2,3l-1.2,2.3l1.2,1.4
                      l-1.2,1.7h-1.9l-2.1-0.9l-1.2,4l-7.8,4.6l0.4,2.5l1.9,0.9l-4,6.5l-1.7-0.2l0.7,4.4l-2.3,2.5l2.1,2.8v2.8l2.3,3l-0.4,5.8l2.5,4.8
                      l0.4-1.7l5.1-0.9l1.2,2.1h4.2l6.5-13.9l5.1-4l1.7,1.2l-0.7,2.8l1.4-0.4l2.3,1.2l0.9,4.4l1.7,1.7l0.4,4l1.7,2.3l1.7-1.9l0.4-6.1
                      l2.1-0.9l-0.2-5.7l1.7-0.2c0,0,3,3,3,2.1c0-0.9,1.7-2.8,1.7-2.8l2.1-0.9l3-3l2.5,3l0.9,2.5l0.2,4l4.2-2.1l0.4-1.9l2.5,0.2l1.2,2.1
                      h3.5l3,3.4l0.9,2.5l1.4,0.9l1.4,4.2l0.4,3l2.1,0.9l1.7,6.7l3,1.9v6.7l0.9,0.7l2.1-1.2l3.5,1.9l2.3-1.9l2.8-1.7l2.5,0.9l0.4,1.9
                      l1.9-0.2l-0.2-3l3.7,0.2l4.6,3l1.2-2.3l0,0l3.7,0.9l1.2,3l3.5,0.2l4.2-3l4,0.4l2.5-0.9l-0.7,3.2l1.2,0.9h4l0.9,0.7l3.2,0.4
                      l1.2,2.3l1.4,0.2l1.4,1.9h2.8l1.7-1.4l1.9-2.5l1.4,1.7l1.7-0.2l-1.7-1.7l1.7-0.9v-3.7l-2.1-1.2l-0.2-2.5l-6.5-0.4l-1.9-1.7v-2.8
                      h2.1l-1.4-1.4l0.2-2.1l3.5,0.4l1.4,0.2l1.2-1.9l-0.9-1.9l1.4-3.5v-3.7l1.2-0.9l2.5,0.9l4.6-2.5l-0.4-0.9l-1.2-0.7l1.2-3.5l1.7,1.7
                      l4-3l-1.2-1.7l8.4-3.5h7.6l-0.4-5.3l-1.2-2.8h-2.2l-1.7-0.9l0.2-2.8l0.9-3l3.7,0.4l1.4,2.5l2.3,0.9l2.1-1.7l-0.9-1.9l1.7-1.4
                      l2.8,0.7l2.5,1.1l1.1-2.1l4.6-2.1l2.1,0.9h1.9l0.7-1.9l6.1-2.8l3.5-2.1l-1.4-4.8l1.9-4.4L482.4,320.5z"/>
                  </g>
                  <polygon fill="#C6C6C6" stroke="#FFFFFF" stroke-width="0.25" stroke-miterlimit="10" points="273.9,501.6 272.6,502 272.3,503.3 
                    273.6,504.8 274.3,504.8 274.6,503.9   "/>
                  <polygon id="corse" fill="#C6C6C6" stroke="#FFFFFF" stroke-width="0.25" stroke-miterlimit="10" points="534.6,480.2 
                    534.8,477 534.4,475.2 533.5,472.9 532.5,469.5 532.6,466.7 532.3,465.7 532.6,464.8 531.8,462.3 531.8,460.2 530.5,456.9 
                    527.4,452.7 527.2,452.9 527.4,453.9 528.4,455.2 528.9,456.2 529.7,456.9 530.4,458.3 528.9,457.7 528.1,456.5 527.4,454.6 
                    527,454.1 526.5,452.5 526.5,449.7 527,449.1 527.9,444 528.1,442.6 527.2,441.2 526.8,436.3 525.5,432.5 525.5,431.2 524.2,430.2 
                    523,429.8 522.1,430 521.5,429.6 520,430.4 519.8,432.5 520.5,432.7 520.3,434 520.7,434.6 519.6,437.3 519.8,439.1 520.5,439.1 
                    520.7,440.1 519.2,441.4 521.3,444.5 520.9,445.3 521.5,447.9 520.5,448.9 520.5,450.4 519.2,451.6 517.1,448.6 516.3,449.1 
                    515.6,448.1 514.2,449.1 513.3,448.4 511,448.9 508,451.2 507.8,452.5 508.5,453.9 507.3,453.7 506.4,455.4 505.7,454.6 
                    505.2,455.4 502.6,455.8 502,455.2 501.1,456 499.7,456.5 499.7,457.5 496.5,458.1 496.5,458.8 496.3,460.2 495.3,460.9 
                    494.2,460.4 492.7,459.8 491.9,460.6 493,461.5 492.5,463.4 491.6,464.4 490.2,466.9 491.5,466.7 491.3,468 490.4,469.5 
                    490.6,470.8 488.8,470.3 488.1,472.6 486.9,472.9 486.5,473.6 485.6,473.3 485.1,474.5 486.9,476.6 487.9,475.6 489.3,475.6 
                    489.6,476.6 488.6,477.3 488.8,478.1 491.1,478.5 491.9,478.3 493.4,480.6 489.6,481.5 489.2,482.3 486.7,482.7 487,483.5 
                    487.7,483.5 487.9,484.9 487.9,487.2 488.6,487.7 487.5,488.8 488.8,488.8 488.8,489.5 490.4,489.5 493.4,491.1 493.8,490 
                    495.3,491.6 494.8,492.1 495.9,492.6 496.7,494.7 495.7,495.3 493,497 494.2,498.3 492.5,499.7 491.3,499.3 489.8,500.2 491.6,502 
                    491.9,504.8 493,503.9 495.3,503.7 497.4,503.3 498.2,501.6 499.7,502.3 500.6,504.1 499,504.8 499.7,506.4 498.6,507.1 
                    499.2,507.8 499.2,509.2 498,510.4 496.9,510.2 496.7,510.6 497.6,511.5 496.5,512.9 494.8,513.6 495.1,514.3 496.5,514.3 
                    496.3,514.8 497.6,515.3 500.9,513.6 501.3,514 500.1,515.5 500.9,516.6 502,516.1 501.6,515.3 503,514.8 503.2,516.1 504.7,516.4 
                    506.6,516.1 506.8,516.8 506,518 505.7,518.7 505,519.7 504.3,519.4 502.9,520.8 502.4,520.3 501.1,522 501.6,522.6 501.1,523.5 
                    502,523.7 502.2,525.8 503.9,526.2 505.3,526.4 505,527.9 505.7,528.1 506.6,527.7 507.1,528.1 508.5,527.9 508.9,529.3 
                    510.8,528.9 511.7,530 512.5,529.1 513.5,529.8 514,530.8 514.5,530 515,530.8 516.1,529.1 516.6,529.1 516.5,531.7 517.3,531.2 
                    518.8,531.4 517.7,535.1 519.4,534.4 522.1,536.3 524,535.6 524.2,534.6 526.3,532.3 525.5,531.7 524.2,532.9 524,531.9 
                    525.9,529.3 526.3,528.5 526.1,527.5 526.1,526.2 525.3,525.6 527,524.7 527.2,523.5 528.4,523.1 529.7,521 529.7,520.3 
                    528.9,520.5 527,521 525.9,522.2 525.3,520.1 526.5,519.1 527.4,519.7 528.6,519.4 528.9,518 529.5,518 530,516.4 529.7,515.3 
                    530.7,514.7 530.7,512.4 530.4,509 530,508.1 529.5,503.9 529.5,500.8 529.7,499.3 528.9,498.1 530,497.9 532.8,492.6 533,490.3 
                    534.4,489.6 535.1,485.9   "/>
                  <path fill="#C6C6C6" stroke="#FFFFFF" stroke-width="0.25" stroke-miterlimit="10" d="M49.3,432.3l-0.2-0.4
                    l-0.4-0.2l0.2-0.2l0.2,0.2l0.2-0.4v-0.2l-0.2-0.4l-0.2-0.4h-0.2l-0.2-0.4v-0.7l-0.3-0.8l-0.2-0.2l-0.2,0.4l-0.2-0.2l0.2-0.4
                    l-0.2-0.2l0.2-0.2l0.2,0.2h0.2l0.2-0.7l-0.2-0.2l-0.2,0.2h-0.4v-0.2h0.2l0.7-0.2l-0.2-0.4l-0.4-0.4l-0.2,0.2h-0.4l0.4-0.4l0.2-0.4
                    l0.4-0.7l0,0l-0.7,0.7v-0.4l-0.4,0.2l0.2-0.4l-0.2,0.2V425l-0.4-0.2l0.2-0.4l0.2-0.2l-0.2-0.2l0.2-0.2l-0.4-0.2l-0.2-0.4
                    c0,0-0.4,0.4-0.7,0.4s-0.4-0.2-0.4-0.2l-0.2-0.4l0.2-0.4l-0.4-0.2l-0.2-0.4l0.4-0.4h-0.4h-0.7l-0.4,0.4l-0.4-0.2h-0.4l0.2-0.7
                    l0.2-0.2l-0.2-0.2v-1l0.4-0.2h-0.4l-0.2-0.2l-0.2-0.2l0.2-0.2l0.4,0.2l0.2-0.2v-0.4H44h0.2V418l-0.2-0.2l-0.4,0.2l-0.2,0.4
                    l-0.4-0.2v-0.4l-0.4-0.2l-0.2,0.4l-0.4-0.2h-0.6l-0.2,0.7l-0.4,0.2l-0.4-0.2l-0.4-0.7l-0.2-0.2v-0.4l0.2-0.4l0.2-0.2l0.2,0.2v0.2
                    H41v-0.2h-0.2l-0.2-0.4l0.4,0.2l0.4-0.4l0.2,0.2l0.2-0.4h0.4v-0.7l-0.4,0.4l-0.4-0.7v-0.7l-0.4,0.2v0.2l-0.4,0.2h-0.4l-0.2-0.4
                    l0.2-0.4l0.2-0.4l-0.7,0.2l-0.2,0.2l-0.4-0.4l-0.2-0.4v-0.4h0.4l-0.4-0.2l0.2-0.4l0.4-0.2l0.2-0.4h0.7l0.4,0.2l0.7,0.4l0.2,0.4
                    l0.2,0.2l0.2-0.2l0.2,0.2l0.4-0.2l0.2,0.2v-0.9h-0.2l-0.2-0.2l0.2-0.2l0.2-0.2H43v-0.4l-0.4-0.4l0.2-0.4l1.4-0.2l0.2,0.7l0.2,0.2
                    H45l0.2-0.2l-0.4-0.2l0.2-0.4l-0.4-0.4l-0.2-0.7h-0.2L44,409l-0.2,0.4l-0.4,0.2l-0.4,0.4l-0.2-0.2l-0.2,0.2l-0.2,0.2l-0.4,0.2
                    l-0.2-0.4h-0.7v0.4l-0.7,0.2l-0.4,0.7l-0.2,0.4l-0.2,0.2l-0.4-0.2v-0.7l-0.4-0.7l0.2-0.2l-0.7-0.4v-0.3l-0.7-0.4l0.2-0.2l-0.7-0.2
                    l0.2-0.4h-0.2h-0.2l-0.2-0.4l-0.4-0.4l0.2-0.7h-0.2l-0.2-0.2l-0.2,0.4l-0.7-0.4l-0.2-0.7v-0.2H35l-0.2,0.2h-0.2v-0.4l0.2-0.2H34
                    l-0.2-0.2l-0.9,0.2h-0.4l-0.7-0.7l-0.7-0.2l-0.2-0.4h-0.4l-0.9-0.7l-0.2-0.2h-0.4l-0.9-0.4h-0.7l-0.4-0.2h-0.4l-0.4-0.2l-0.2,0.2
                    l-0.4-0.2l-0.7,0.2l-0.9,0.2l-0.9,0.2l-0.9,0.4l-0.7,0.4l-0.7,0.4l-0.2,0.4l-0.2,0.7l-0.4,0.4v0.7l-0.2,0.4l0.2,0.7l-0.2,0.2
                    l0.2,0.9l0.4,0.7l0.4,0.9l0.4,0.2l0.4,0.2l0.2,0.2l0.4,0.7l0.4,0.7l0.4,0.7l0.2,0.7l-0.2,0.9l-0.2,1.1v0.9l0.2,0.9l0.4,0.7l0.4,0.7
                    l0.4,0.9l0.2,0.7l0.2,0.2l0.2,0.4l0.4,0.2l0.2,0.2v0.4l0.7,0.2l1.1,0.2l0.7,0.7l0.7,0.7l0.4,0.9h0.4l0.7-0.4h0.7l0.2,0.2l0.2-0.2
                    l0.4-0.2l0.2,0.7l0.2-0.2l0.7,0.2h0.4l-0.2-0.4V423h0.4l0.4-0.2l0.4,0.2v0.2h0.2v0.7l-0.4,0.2v0.2l0.4,0.2l0.2,0.4h0.2l-0.2,0.7
                    l0.2,0.2v0.4h0.2h0.7l0.4,0.2l0.2,0.4l-0.2,0.4l-0.4,0.2l-0.4,0.4v-0.4h0.4v0.4l-0.2,0.2l-0.4-0.2l-0.2,0.2l-0.4-0.2v-0.4h-0.7
                    l-0.2-0.2l0.4-0.4l-0.2-0.7l-0.2,0.4h-0.2l-0.2-0.7v0.4l-0.4,0.2l-0.4,0.7l-0.9,0.2l-0.5-0.5l-0.2,0.4l-0.4,0.7L30,428l-0.2,0.4
                    l-0.2,0.4l-0.2,0.4l0.4,0.2l0.7-0.2l0.2,0.2v0.4h-0.2l-0.2,0.2h0.4h0.2v0.9l-0.2,0.2l0.2,0.7l0.4,0.2l0.4,0.2l0.2,0.7l0.4,0.2
                    l0.7-0.2l0.2-0.2v-0.4l0.4-0.4l0.7-0.2h0.4l0.7,0.2l0.4,0.2v-0.7l0.4,0.2v0.4l0.7,0.2v-0.4v-0.4l0.4,0.2l0.9-0.7l0.2,0.4v0.4h0.7
                    v-0.2h0.2l0.7,0.4h0.9l0.7,0.2l0.9-0.2l0.4-0.2l0.2,0.2l0.2-0.2l0.2,0.2l-0.2,0.4l0.9,0.9l0.7-0.2v-0.4l0.4-0.4v-0.2h0.4v-0.4h0.4
                    l0.2,0.2l0.2,0.4l-0.4,0.4l0.2,0.2H45l0.2,0.7H45l-0.2,0.2l-0.4-0.2l0.4,0.7l-0.2,0.4v0.4l-0.7,0.7l0.4,0.4l0.2,0.2l-0.2,0.4h0.2
                    l0.4,0.4l-0.2,0.4h0.4l0.4,0.2h0.4l0.4-0.4l0.2-0.7l0.2-0.2l0.4,0.2l0.2-0.2l-0.4-0.4l-0.4-0.4v-0.2l0.4-0.2l0.2,0.2h0.2l0.2-0.4
                    l-0.2-0.4h0.4l0.4-0.2v-0.9l0.2-0.7l0.4-0.2L49.3,432.3L49.3,432.3z M44.7,411.8v-0.5h-0.3v0.2L44.7,411.8z M44.7,417.6l0.2-0.7
                    l-0.4,0.4L44.7,417.6z M44,419.9l0.2,0.4l0.2-0.2L44,419.9L44,419.9z M46.1,420.9v-0.4l-0.4,0.2l-0.2,0.2l0.2,0.2L46.1,420.9z
                     M47.2,420.6L47.2,420.6l-0.2-0.2l-0.2,0.4H47L47.2,420.6z M46.3,421.6l0.4,0.2l0.2-0.2l-0.2-0.2h-0.2l-0.4,0.4L46.3,421.6z
                     M48.2,434.4L48.2,434.4l0.4,0.4v-0.4H48.2z M48.2,435.9L48.2,435.9h0.4H48.2L48.2,435.9z M48,436.3h0.2v-0.2L48,436.3L48,436.3z
                     M31.2,426.4L31.2,426.4h-0.4l0.2,0.2L31.2,426.4z M44.9,415.7l-0.4-0.2v-0.2h-0.4v0.2l-0.2-0.2l-0.2,0.2l0.4,0.2v0.2h0.2v-0.2h0.2
                    C44.4,415.9,44.9,415.7,44.9,415.7L44.9,415.7z M44.7,415.9L44.7,415.9L44.7,415.9v0.4V415.9L44.7,415.9z M42.6,416.3L42.6,416.3
                    L42.6,416.3L42.6,416.3L42.6,416.3z M43.2,416.2h0.2V416h-0.2V416.2L43.2,416.2z M45.9,422L45.9,422L45.9,422L45.9,422L45.9,422
                    L45.9,422z"/>
                  <path fill="#C6C6C6" stroke="#FFFFFF" stroke-width="0.25" stroke-miterlimit="10" d="M51.6,346.4
                    c-0.2-0.2-0.7-0.7-0.9-0.9c0-0.2,0-0.2,0-0.4c0-0.2,0.2-0.4,0.2-0.4c0-0.4-0.2,0-0.4-0.2c0,0,0.2-0.9-0.2-0.7c0-0.4,0-0.7-0.2-0.9
                    c-0.2-0.2-0.4-0.4-0.7-0.7c-0.2-0.2-0.9-0.7-1.2-0.2c-0.4,0.4,0.2,1.4,0.2,1.9c0,1.1-0.9,0.9-1.4,1.4c-0.2-0.4,0.4-0.4,0.7-0.4
                    c0.2-0.2,0.4-0.4,0.4-0.7c-0.2-0.9-0.4-1.7-0.9-2.5c-0.2-0.4-0.4-0.7-0.9-1.1c-0.2-0.2-0.7-0.4-1.1-0.7c-0.2-0.2-0.2-0.7-0.7-0.7
                    c-0.2,0-0.4,0.4-0.7,0.2c0.2-0.2,0.4-0.4,0.2-0.9c-0.2-0.5-0.7-0.4-1.1,0c-0.2,0.2,0,0.4-0.4,0.4c-0.2,0-0.9,0-1.1-0.2
                    c0.2-0.2,0.4-0.2,0.9-0.2c0.2,0,0.4,0,0.2-0.4c0-0.4-0.7-1.1-1.1-1.1c0,0.4-0.4,0-0.7,0c-0.2-0.2-0.7-0.4-1.1-0.7
                    c-0.4-0.2-0.7-0.7-1.1-0.9c-0.4-0.2-0.7-0.7-1.1-0.9c-0.2-0.4-0.4-0.7-0.7-0.9c-0.4-0.2-0.9-0.2-1.2-0.4c0,0-1.7-1.1-1.2-0.4
                    c-0.7,0-1.2-0.2-1.9-0.2s-1.1-0.2-1.7-0.4s-1.2-0.2-1.9-0.4c-0.7-0.2-1.1-0.7-1.7-1.1c-0.4-0.2-0.9-0.4-1.2-0.7
                    c-0.4-0.2-1.1-0.7-1.4-0.7c-0.4-0.2-0.7,0-0.2,0.4c0.4,0.2,0.9,0.2,1.1,0.7c-0.7,0-1.1-0.9-1.7-0.7c-0.4,0-0.4,0.4-0.4,0.9
                    c-0.2,0.7-0.2,1.1-0.4,1.7c-0.4,0.9-0.7,1.7-1.7,2.3c-0.9,0.7-1.2,1.2-1.9,1.9c-0.2,0.4-0.7,0.7-0.9,1.1c-0.4,0.4-0.4,1.1-0.4,1.7
                    c0,0.4,0,1.1,0.2,1.4c0,0.4,0.4,0.7,0.4,1.1c0,0.4,0.2,0.9,0.2,1.2s0.2,1.1,0.2,1.7c0,0.7,0.2,0.9,0.4,1.2c0.2,0.4,0,0.9,0.2,1.2
                    c0.2,0.4,0.4,0.4,0.7,0.7c0.2,0.4,0,0.7,0,1.1c0,0.4,0.4,0.4,0.7,0.7c0.4,0.4,0.7,0.9,1.1,1.2c0.2,0.2,0.4,0.7,0.9,0.9
                    c0.4,0.2,0.7,0.2,0.9,0.7c0.2,0.4,0.2,0.9,0.7,1.1c0.4,0.2,0.7-0.2,1.1,0.2c0.2,0.4,0,0.4,0,0.9c0,0.2,0,0.4,0,0.4
                    c0,0.2,0,0.4-0.2,0.7c0,0.2-0.2,0.4-0.4,0.7c-0.2,0.2-0.2,0.4-0.2,0.7c-0.2,0.4-0.4,0.7-0.9,1.1c-0.4,0.4-0.9,0.2-1.1,0.9
                    c0,0.4,0,0.2,0.2,0.4c0.2,0.2,0.2,0,0.2,0.2s-0.2,0.2-0.2,0.2c0,0.2,0.2,0.2,0.2,0.4s0,0.4,0,0.7c0,0.2,0,0.7,0,0.9
                    s0.2,0.2,0.2,0.4c0,0.2-0.2,0.2-0.2,0.4c0,0.2,0,0.2,0,0.4s-0.2,0.2-0.2,0.4c-0.2,0.2,0,0.4-0.2,0.7c-0.2,0.4-0.7,0.9-0.7,1.2
                    c-0.2,0.4,0,1.1-0.2,1.2c-0.2,0.4-0.7,0.4-1.1,0.7c-0.7,0.2-0.2,0.2-0.7,0.7c-0.2,0.4-0.9,0-1.1,0.4c0.4,0.2,0.7,0.4,0.9,0.7
                    c0,0,0,0.2,0.2,0.2c0.2,0.2,0.4,0.2,0.7,0.2c0.9,0.2,1.2,1.1,2.1,1.1c0.4,0,0.9-0.2,1.2,0c0.4,0.2,0.7,0.7,1.1,0.7
                    c0.4,0,0.4-0.2,0.4-0.4c0.2-0.4,0.4-0.4,0.9-0.4c0.4,0,0.7-0.2,1.1-0.7c0.4-0.2,0.7-0.4,1.1-0.7c0.4-0.4,0.7-1.2,1.2-0.9
                    c0.2,0.2,0,0.2,0.2,0.7c0.2,0.2,0.4,0.4,0.7,0.4c0.4,0,0.4,0,0.7-0.4c0.2-0.2,0.2-0.4,0.7-0.4c0.5,0,0.7,0.4,0.9,0.9
                    c0.2,0.5,0.2,0.4,0.7,0.7c0.4,0.2,0.2,0.7,0,0.9c-0.2,0.4-0.4,0.9-0.2,1.2c0.9-0.2,1.4-0.2,2.1-0.7c0.4-0.2,0.7-0.2,1.1-0.2
                    c0.4,0,0.7-0.2,1.1-0.4c0.7-0.2,1.2,0,1.9-0.4c0.2-0.2,0.2-0.7,0.4-0.9c0.2-0.2,0.2-0.2,0.4-0.2c0,0,0-0.2,0.2-0.2
                    c0.4-0.4,1.1-0.4,1.4-0.7c0.2-0.2,0.4,0,0.7-0.2c0.2-0.2,0-0.7,0.2-0.9c0.2-0.2,0.4-0.2,0.4-0.4c0.2-0.2,0.2-0.2,0.4-0.4
                    c0.2-0.2,0.4-0.4,0.4-0.7c0-0.2-0.4-0.4-0.7-0.7c-0.2-0.4,0-0.2,0.2-0.4c0,0,0.2,0,0.2-0.2c0,0,0-0.2,0-0.4c0-0.7,0.2-1.2,0.4-1.9
                    c0-0.4,0.2-0.7,0.4-0.9c0.2-0.2,0.4-0.2,0.4-0.4c0-0.2-0.2-0.2-0.2-0.4c0-0.4,0.4-0.9,0.4-1.1c0-0.4,0-0.4-0.2-0.7
                    c-0.2-0.2-0.2-0.2-0.2-0.4c0-0.2,0.7-1.1,0.9-1.2c0.2,0,0.2,0,0.4,0c0.2-0.2,0.2-0.9,0.4-1.1c0.4-0.9,0.9-1.7,1.1-2.5
                    c0.2-0.7,0.7-0.9,0.9-1.4c0-0.2,0-0.7,0.2-0.9s0.7-0.2,0.9-0.4c0.2-0.2,0.4-0.7,0.7-0.9c0.4-0.7,0.9-1.2,1.4-1.9
                    c0.2-0.2,0.2-0.4,0.2-0.9C51.6,347.2,51.8,346.8,51.6,346.4C51.1,345.7,51.8,346.8,51.6,346.4z"/>

                  <path fill="#C6C6C6" stroke="#FFFFFF" stroke-width="0.25" stroke-miterlimit="10" d="M56,491.4c0-0.2,0-0.4,0-0.7
                    v-0.2v-0.2l-0.2-0.2v-0.3c0-0.2-0.2-0.2-0.2-0.4c0-0.2,0-0.4-0.2-0.4c-0.2-0.2-0.4-0.2-0.4-0.2c-0.2,0-0.4,0-0.4-0.2
                    c-0.2-0.2-0.2-0.4-0.4-0.4c-0.2-0.2-0.2-0.2-0.4-0.4c-0.2,0-0.4,0-0.7,0c-0.4,0-0.7-0.4-0.9-0.9c-0.2-0.4-0.4-0.7-0.9-0.9
                    c-0.4-0.2-0.4-0.7-0.7-1.1c-0.2-0.4-0.7-0.7-0.9-0.9c-0.2-0.2-0.4-0.2-0.4-0.4c0-0.2,0-0.4-0.2-0.7c-0.2-0.2-0.2-0.2-0.2-0.4
                    c0-0.2,0.2-0.4,0-0.4c0-0.2-0.2-0.2-0.4-0.4c-0.2-0.2-0.2-0.4-0.4-0.7c0-0.2-0.2-0.2-0.4-0.4c-0.2,0-0.4,0-0.4-0.2
                    c-0.2-0.2-0.4-0.7-0.4-0.9c-0.2-0.4,0-0.9,0-1.2c0-0.4,0-1.1-0.2-1.4c-0.2-0.9-0.9-1.7-1.4-2.3c-0.2-0.2-0.4-0.2-0.4-0.4
                    c-0.2-0.2-0.2-0.4-0.4-0.4c-0.2-0.2-0.4-0.2-0.7-0.4c-0.2,0-0.2-0.2-0.4,0v-0.2c-0.7-0.4-1.7-0.2-2.3-0.7c-0.4-0.2-0.7-0.4-1.1-0.7
                    c-0.2,0-0.4-0.2-0.7-0.2c-0.3,0-0.4,0-0.7,0c-0.2,0-0.4-0.2-0.4-0.2c-0.2,0-0.4,0-0.7,0c-0.2,0-0.4,0-0.7,0c-0.3,0-0.4,0.2-0.7,0.2
                    c-0.4,0-0.9-0.2-1.2-0.2c-0.4-0.2-0.9-0.2-1.2-0.4c-0.4-0.2-0.9,0-1.2,0c-0.2,0-0.4,0-0.7,0c-0.2,0-0.4,0-0.7,0
                    c-0.4,0-0.9-0.2-1.1-0.4c-0.2-0.2-0.4-0.7-0.9-0.2c-0.4,0.2-0.7,0.2-1.1,0.2c-0.4,0-0.9,0-1.2,0.2c-0.4,0.2-0.9,0.2-1.2,0.4
                    c-0.2,0.2-0.7,0.4-0.9,0.7c-0.2,0.2-0.4,0.2-0.4,0.4c-0.2,0.2-0.4,0.2-0.4,0.4c-0.2,0.2-0.2,0.2-0.4,0.4c-0.2,0.2-0.4,0.2-0.7,0.4
                    c-0.2,0.2-0.4,0.7-0.7,0.9c-0.2,0.2-0.4,0.2-0.7,0.2c-0.2,0-0.4,0.2-0.7,0.2c0,0,0.2,0.2,0.2,0.4h-0.2c-0.2,0-0.2,0-0.4,0
                    c0.2,0,0.4,0,0.4-0.2c-0.2,0.2-0.7,0.2-0.9,0.2c-0.4,0-0.7,0-1.1-0.2c-0.2-0.2-0.4-0.2-0.7,0c-0.2,0.2,0,0.7-0.2,0.9
                    c0,0,0.2,0,0.2-0.2c0,0,0,0-0.2,0c0,0,0.4-0.2,0.4,0c0,0,0,0-0.2,0c0.2,0,0,0.2,0,0.2c0,0.2,0,0.2-0.2,0.2c0,0,0,0-0.2,0v0.2
                    c0,0.2,0,0.4-0.2,0.7c0,0.2-0.2,0.4-0.2,0.7c0,0.2,0.2,0.4,0.2,0.7c0.2,0.4,0.2,0.9,0,1.2c0.2-0.2,0.7,0.2,0.7,0.4
                    c0.2,0.2,0.7,0.2,0.9,0.4c-0.2,0-0.4,0-0.7-0.2c-0.2-0.2-0.2-0.4-0.4-0.4c-0.4-0.2-0.4,0.4-0.7,0.7c-0.2,0.4-0.7,0.9-1.1,1.1
                    c-0.4,0.2-0.9,0.4-1.4,0.4c-0.2,0-0.4,0-0.7,0c-0.2,0.2-0.2,0.4-0.4,0.7c-0.2,0.2-0.2,0.4-0.4,0.4c-0.2,0.2-0.4,0.4-0.2,0.7
                    c0,0.2,0.7,0.7,0.4,0.9c0,0.2-0.2,0.2-0.2,0.4s0,0.2,0,0.4c0,0.2-0.2,0.7,0,0.9c0,0.2,0.2,0.4,0.4,0.7c0.2,0.2,0.4,0.4,0.7,0.7
                    c0.2,0.2,0.4,0.4,0.7,0.7c0.2,0.2,0.4,0.4,0.9,0.4c0,0.2-0.2,0-0.2,0.2c0,0.2,0,0.2,0.2,0.2c0.2,0.2,0.4,0.4,0.4,0.7
                    c0.2,0.2,0.4,0.4,0.7,0.7v0.7v0.2c0.2,0,0.2,0,0.2,0.2c0,0.2,0,0.2,0.2,0.2c0.2,0.2,0.4,0.2,0.7,0.4c0.2,0.2,0.2,0.4,0.2,0.7
                    c0,0.4,0,0.7,0,1.1c0,0.2,0,0.4,0,0.9c0,0.2,0,0.2,0,0.4c0,0.2-0.2,0.2-0.2,0.4c0,0.2,0.2,0.4,0.4,0.4c0,0.2,0.2,0.4,0.2,0.9
                    c0.2,0.2,0.2,0.4,0.2,0.7c0.2,0.2,0.4,0.4,0.7,0.4c0.2,0.2,0.4,0.2,0.7,0.4l0.2,0.2c0.2,0,0.2,0.2,0.4,0.2c0.2,0.2,0.2,0.4,0.4,0.4
                    c0.2,0.2,0.4,0.2,0.7,0.4v0.2l0.2,0.2c0,0.2-0.2,0.4,0.2,0.7c0.2,0.2,0.4,0.4,0.7,0.4c0.4,0,0.7,0,1.1,0.2c0.9,0.2,1.4,0.2,2.1,0.7
                    c-0.2-0.2-0.4-0.2-0.4-0.4l0.2,0.2c0,0,0.2,0,0.2,0.2c0.2,0.2,0.2,0.4,0.2,0.4c0.2,0.2,0.4,0.4,0.7,0.7l0.2,0.2
                    c0,0.2,0,0.2,0.2,0.4c0.2,0.4,0.7,0.7,1.1,0.9c0.2,0,0.7,0,0.9,0.2c0.2,0,0.2,0,0.4,0s0.2,0,0.4,0l0,0c0.4,0,0.2,0.2,0.4,0.4
                    c0.2,0.2,0.4,0.4,0.7,0.4c0.2,0,0.7,0,0.9,0c0.2,0,0.4,0.2,0.7,0.7c0.2-0.2,0.4-0.2,0.9-0.2c0.2,0,0.2,0,0.4,0l0.2,0.2
                    c0.2,0,0.4,0.2,0.7,0.4c0.2,0,0.2,0,0.4,0s0.2,0.2,0.4,0.2s0.7,0,0.9,0.2c0.2,0,0.2,0.2,0.4,0.4c0.2,0,0.2,0.2,0.2,0.4
                    c0.2,0.2,0.2,0,0.4,0s0.2,0,0.2,0c0.2,0,0.2,0,0.4,0s0.2,0.2,0.4,0.2c0.2,0,0.4,0,0.4,0c0.2,0,0.4-0.2,0.7-0.2
                    c0.2,0,0.2,0.2,0.2,0.2s0.2,0,0.2,0.2l0.2,0.2c0.2,0,0.2,0,0.4,0.2c0.2,0.2,0.4,0.2,0.7,0.4c0.7,0,1.1-0.4,1.7-0.2
                    c0.2,0,0.2,0,0.4,0s0.2,0.2,0.2,0.2c0.2,0.2,0.4,0,0.7-0.2c0.2-0.2,0.4-0.2,0.9-0.2c0.2,0,0.2,0,0.4,0c0.2,0,0.2-0.2,0.4,0
                    c0-0.9,1.2-0.4,1.7-0.4s0.9,0,1.2-0.2c0.2,0,0.2-0.2,0.4-0.2s0.4,0,0.7,0c0.4,0,0.9,0,1.1-0.2c0.2,0,0.2-0.2,0.2-0.2
                    c0.2,0,0.4,0,0.7,0c0.4,0,0.9,0,1.1-0.2c0.2,0,0.2-0.2,0.4-0.4c0.2-0.2,0.2-0.2,0.4-0.2c0.4-0.2,0.4-0.4,0.7-0.9
                    c0.2-0.4,0.4-0.7,0.2-1.1c-0.4-0.9-0.2-1.7-0.2-2.5c0-0.2,0-0.4-0.2-0.7c0-0.2,0-0.4,0-0.7c0-0.4-0.2-0.9-0.2-1.2
                    c0-0.2,0-0.4,0.2-0.7c0-0.2,0-0.4,0-0.7c0-0.2,0.2-0.4,0.2-0.7c0-0.2,0-0.4,0-0.7s0.2-0.4,0.2-0.7c0-0.2,0.2-0.4,0.2-0.7
                    c0.2-0.4,0.7-0.7,0.7-1.1c0-0.2,0-0.4,0-0.7c0-0.2,0.2-0.2,0.2-0.2c0.2,0,0.4,0,0.4-0.2C56,491.6,56.2,491.4,56,491.4L56,491.4
                    L56,491.4L56,491.4L56,491.4L56,491.4L56,491.4C56,491.1,56.2,491.6,56,491.4z"/>
                    
                  <path fill="#C6C6C6" stroke="#FFFFFF" stroke-width="0.25" stroke-miterlimit="10" d="M20.1,300.6l-0.2-0.4
                    l-0.4-0.2l-0.2-0.2l-0.2,0.2l-0.7,0.4v0.4l-0.4,0.4l0.2,0.2h0.4l0.4,0.2l0.2,0.2l0.4-0.2l0.2-0.7H20l0.4-0.2v-0.4L20.1,300.6
                    L20.1,300.6z M21.1,301.9L21.1,301.9l-0.2,0.2l0.2,0.4h0.4l-0.2-0.4L21.1,301.9L21.1,301.9z M22.4,301.7L22.4,301.7L22,302v0.4
                    l0.2-0.2l0.2,0.2h0.4v-0.2l-0.2-0.2L22.4,301.7L22.4,301.7z M8.1,277.7L8.1,277.7l-0.2,0.2l0.2,0.2l0.2-0.2L8.1,277.7L8.1,277.7
                    L8.1,277.7z M22.2,265.4L22.2,265.4l0.9-0.2l0.2-0.2l-0.2-0.2h-0.2l-0.5-0.2l-0.2,0.2l-0.4,0.4v0.2L22.2,265.4L22.2,265.4z
                     M9.1,263.8L9.1,263.8v-0.7H8.8v0.7H9.1L9.1,263.8z M22.4,299.6v-0.4h-0.7l-0.2,0.4l0.2,0.2L22.4,299.6L22.4,299.6z M56,277L56,277
                    l0.9,0.2v-0.4L56,277L56,277z M23.6,298.9v0.4l0.2,0.2l-0.2,0.4l-0.4-0.2v-0.4l-0.2-0.2l-0.4,0.4l0.4,0.2l-0.2,0.4l-0.4,0.2h-0.7
                    l-0.2,0.4l0.2,0.4h0.4l0.4-0.4h0.4h0.2l0.2-0.2v-0.3l0.4-0.2l0.2-0.4L23.6,298.9L23.6,298.9L23.6,298.9z M55.6,277.4l-0.4-0.2
                    l-0.2,0.2l0.2,0.2l0.7,0.2l0.7-0.2l0.4-0.2l-0.4-0.2L55.6,277.4L55.6,277.4z M62.9,265.3l-0.2-0.4v-0.4H62l-0.2,0.4h-0.4l-0.4,0.2
                    l-0.7,0.2l-0.7,0.4l-0.7,0.4l-0.4,0.2H58h-0.4l-0.2,0.4l-0.4,0.2l-0.4-0.2l-0.2,0.7h-0.4l0.2,0.4l-0.2,0.4l0.2,0.2l0.4-0.4h0.4
                    l0.9-0.4l1.1-0.4l0.9-0.2l0.7-0.4l0.9-0.7l0.7-0.2l0.7-0.2l0.7-0.7L62.9,265.3L62.9,265.3z M50.5,272L50.5,272l-0.7-0.2h-0.4
                    l-1.1-0.7l-0.9-0.4l-0.9-0.4l-0.7-0.9l-0.2-0.7l-0.2-0.2v-0.4l-0.2-0.4h-0.4v-0.4h-0.7l-0.2-0.4h-0.4l-0.4-0.4h-0.2l-0.7-0.4
                    l-0.4-0.2H41l-0.7-0.2l-0.7,0.2l-0.4-0.4h-0.9H38l-0.2-0.4l-0.7-0.2l-0.2-0.4l-0.7-0.9l-0.4-0.7l-0.2-0.7l-0.2-0.4v-0.9l0.2-0.4
                    l0.2-1.2V258l-0.2-0.4h-0.4l0.2-0.4v-0.7l-0.4-0.2V256l-0.4-0.4l-1.1-0.9l-0.4-0.4l-0.4,0.2l-0.2-1.1h-0.2l-0.4,0.2l-0.4-0.2
                    l-0.2,0.2l-0.2-0.7l-0.7-0.2l-0.4,0.4l-0.2,0.4l-0.9,0.7l-0.9,0.4v0.2l-0.2,0.4l-0.9,0.2l-0.9,1.1v0.7l-0.4,0.9l0.2,0.2l0.2,0.9
                    l0.2,0.7v0.9l0.4,0.7l1.1,0.4l0.4,0.4l0.4,0.7l-0.4,0.7l0.2,0.2l-0.2,0.4l0.4,0.2l-0.2,0.4H28v0.4h-0.7l-0.4-0.2l-0.2,0.2l-0.9,0.9
                    l-0.2,0.9v0.9l-0.4,0.7l-0.2,0.2l0.2,0.4l-0.4,0.4l0.2,0.7h-0.4l-0.2-0.4h-0.4h-0.7l-0.7,0.2l-0.2,0.7l-0.2,0.4h-0.7v-0.2v-0.7
                    l-0.4,0.7l-0.4,0.4h-0.4l0.2-0.4L21,270h-0.4l-0.2,0.2l-0.2-0.4l0.2-0.4v-0.7l0.2,0.2v0.4l0.2-0.2l0.4-0.9l0.4-0.4h-0.7l-0.9,0.2
                    l-0.4-0.2l-0.4-0.4l-0.7-0.2v-0.7l-0.4-0.2l-0.4,0.2h-0.4l-0.2,0.2l-0.4,0.4l-0.2-0.7l-0.4-0.2l-0.2,0.4l-0.4-0.4l-0.4-0.4
                    l-0.9-0.2l-0.7-0.2l-0.2-0.7h-0.2v-0.4l-0.7-0.2h-0.7l-0.2-0.2h-0.4v0.7l-0.7-0.2l-0.4-0.2l-0.7,0.7H9L8.6,266l-0.4,0.7v0.4
                    L8,267.3l-0.4,0.2l0,0l0.2,0.2l0.2,0.2L7.8,268l-0.4,0.2v0.9l0.2,1.1l-0.2,0.4L7,270.7l0.2,1.1l0.2,0.9l0.4,0.9l0.4,0.2h0.4
                    l-0.2,0.9l0.4,0.4l-0.2,0.4L8.4,276v0.2l0.2,0.4v1.1l0.7,0.2v1.2v0.9v0.7l0.4,0.4v0.7l-0.2,0.2l0.2,0.4v0.7l-0.2,0.7l0.4,0.7v0.4
                    h0.4l-0.2,0.7v0.4v1.1l0.4,0.9l0.9,1.1l0.4,0.9l0.4,1.1l0.7,0.7l0.9,0.7l0.4,0.4l0.4,0.7l0.2,0.9v0.4l0.4,0.2h0.4h0.7l0.4-0.2
                    l0.2-0.4h0.4l0.4-0.4l0.4-0.2h0.4v0.4l0.4-0.4V293h0.2l0.2,0.2h0.4l0.7-0.2h0.4l0.2-0.2h0.4l-0.2-0.4l0.4-0.4l0.2-0.4l0.7-0.4
                    l0.2-0.4l0.4-0.2l0.7-0.7l0.2-0.4l0.2-0.2l0.7-0.7l0.2-0.7l0.4-0.9l0.2-0.4l-0.2-0.7l-0.2-0.7l0.2-0.4l-0.2-0.2l0.2-0.9v-0.4
                    l-0.4-0.4V283l-0.4-0.2v-0.7l0.4-0.4l0.2-0.2v-0.4l-0.4-0.2l0.1-1l-1.1-0.2l0.2-0.2v-0.4l-0.4-0.4l-0.2-0.4v-0.7l0.4-0.4l-0.2-0.2
                    h-0.4l-0.2-0.7l0.2-0.9l0.2-0.2l0.2-0.4l-0.4-0.2l0.2-0.4v-0.4l0.2-0.9l0.2-0.4l0.2,0.2h0.2l0.2-0.2H24l0.2,0.2h0.2l0.2-0.2
                    l0.7,0.2l0.4,0.2l-0.2-0.4l-0.2-0.2l0.2-0.2l-0.2-0.2l-0.2-0.4h0.4l0.2,0.2l0.4,0.4l0.2,0.7l0.4,0.4l0,0l0.2,0.7l0.2,0.4h0.4
                    l0.4-0.2l0.2,0.2v0.4v0.4l0.9,0.2h0.9l0.7,0.2L31,276l0.7-0.2l0.7-0.2l0.4-0.4h1.7l0.7-0.4l0.4-0.2l0.2-0.2l0.4,0.2l0.2-0.4h1.2
                    v-0.2l0.7-0.2l0.9-0.4l0.7,0.2l0.4-0.4l0.9-0.2h0.4l0.9,0.2l0.7-0.2l1.9-0.4l0.7-0.2l0.7-0.2l0.4-0.2h1.1l0.7,0.2h0.4H49l0.9,0.4
                    h1.2l0.7,0.2l0.4,0.2l0.4-0.2l-0.2-0.4h-1.8V272z M49.5,294.1l-0.9-0.4l-0.7-0.9l-0.4-0.4l-0.2-0.9l-0.7-0.4L46,291l-0.7-0.4
                    l-0.9-0.7h-0.4l-0.7,0.2l-0.9,0.2l-0.2,0.7l-0.4,0.9l-0.7,0.2l-0.2,0.4v0.4v0.9l-0.4,0.4l-0.7,0.7v0.2v0.9l0.4,0.9v1.1l0.4,0.7
                    l0.7,0.7h0.7l0.7,0.4l1.1,0.4l0.9,0.2l0.9-0.2l1.2-0.4l0.7-0.2l0.9-0.7l0.2-0.7l1.1-0.2l0.4-0.9l0.2-1.2l-0.2-0.9L49.5,294.1
                    L49.5,294.1z"/>
                </g>
                </svg>