<?xml version="1.0" encoding="utf-8"?>
<!-- Generator: Adobe Illustrator 18.1.1, SVG Export Plug-In . SVG Version: 6.00 Build 0)  -->
<!DOCTYPE svg PUBLIC "-//W3C//DTD SVG 1.1//EN" "http://www.w3.org/Graphics/SVG/1.1/DTD/svg11.dtd">
<svg version="1.1" id="Calque_1" xmlns="http://www.w3.org/2000/svg" xmlns:xlink="http://www.w3.org/1999/xlink" x="0px" y="0px"
	 viewBox="0 0 960 560" enable-background="new 0 0 960 560" xml:space="preserve">
<g id="Regions">
	<g id="bretagne">
		<polygon fill="#C6C6C6" stroke="#FFFFFF" stroke-width="0.25" stroke-miterlimit="10" points="213.9,148.8 212.5,150 212.9,151.5 
			214.8,150.9 216.4,149.9 216,148.5 		"/>
		<polygon fill="#C6C6C6" stroke="#FFFFFF" stroke-width="0.25" stroke-miterlimit="10" points="280.3,216.8 279.3,218.5 
			280.7,223.5 287.2,225.3 287.9,224.2 289.1,223.1 282.4,217.9 		"/>
		<polygon fill="#C6C6C6" stroke="#FFFFFF" stroke-width="0.25" stroke-miterlimit="10" points="271.7,200.6 271.5,201.7 
			274.5,203.6 275.4,202.7 274.2,201.1 		"/>
		<polygon fill="#C6C6C6" stroke="#FFFFFF" stroke-width="0.25" stroke-miterlimit="10" points="369,187 367.9,184.2 368.1,180.5 
			366,172.1 368.1,167.5 366.8,164.3 367.7,159.2 366.3,157.3 362.6,157.3 360.3,156.6 357.5,159.9 352,158 350.9,152.7 
			349.4,150.4 346.9,150.6 343.1,151.5 341.1,151.3 339.2,149.2 338.5,144.6 335.6,144.6 333,146.2 331.8,148.8 333.5,150.4 
			334.1,153.2 334.8,154.8 334.1,155.7 333.5,156.6 333.2,154.8 331.4,149.6 328.6,148.5 326.5,149.6 326.1,150.9 324,150.6 
			323.2,148.5 321.5,149.4 321.2,147.1 322.8,145.2 320.7,145.2 317.9,146.9 315.6,146.9 314.5,148.8 311.9,149.9 307.4,154.3 
			305.5,152.3 302,149.4 302.2,145.8 298.6,141.6 298.3,138.9 294.8,138.9 293.9,137.9 294.8,136.3 292.9,136.2 292.7,134.9 
			293.9,132.8 289,134.9 287.7,133.7 285.8,134.5 279.7,135.1 278.9,134.2 276.5,134.5 274,136.5 273.6,138.5 274.9,140.4 
			273.8,140.9 273.6,143.3 271,143.1 270.5,142 265.2,140.6 263.3,142 263.3,145.2 261.8,145 261.2,142.9 259.7,144.4 258.5,139.1 
			255.1,140.8 250.9,140.2 249.7,141.8 246.3,142.3 245.7,140.9 242.7,141.4 240,143.1 237.7,142.5 236.2,143.3 236.5,144.1 
			237.7,145.2 234.9,145.2 237.2,146 237,147.1 234.2,146 230.5,146.2 228.2,149.2 228,151.5 226.3,152.5 226.3,157.6 227.2,159.7 
			228.9,159.9 229.9,158.9 234.9,158.9 237.9,157.6 240.2,157.1 244.8,155.3 240.4,158.4 239.1,159.4 239.3,160.8 241.9,160.8 
			244.8,159.7 244.2,161.4 245.8,162.2 247.6,164.1 247.9,165.6 249,166 248.4,167.3 245.1,165.4 244.2,163.8 237.7,163.1 
			237.2,161.8 235.6,163.3 234.7,162 234.7,160.3 233.5,162 231.8,162.4 232.6,164.3 234.7,164.3 233.7,166.2 233.7,170.2 
			234.7,168.9 236.2,166 239.1,166 243.4,168.5 245.1,171.7 243,174.8 238.3,174.4 228.2,174.6 226.1,175.8 227.2,177.2 
			231.2,177.5 233.1,179.3 233.9,177.9 239.6,184.2 240.6,188.5 238.1,190.8 238.6,192.5 240.6,191.4 245.8,192 247.9,189.9 
			248.1,187.4 248.4,185.1 250.7,183.2 249.5,186.2 249.7,188.3 252.4,190.2 254.3,189.3 253.9,187.2 256,187.6 258,189.5 
			257.8,191 260.1,193.7 262.7,193.7 263.9,192.5 265.6,193.3 266.1,194.6 271.7,196 272.6,198.3 274.9,200.3 278,198.3 
			279.9,198.3 277.2,200.6 280.1,201.3 282.6,203.1 285.6,200.1 286,200.8 283.9,204.2 284.5,205.5 286,207.3 286,212.8 
			287.7,214.9 288.8,213.3 286.8,211.2 287.2,207.6 289.5,208.4 289.5,205 291.3,207 292.7,208.9 293.4,206.8 292.5,204.2 
			293.4,203.4 295.7,207.1 298.8,206.1 299.9,205.9 300.5,204.7 301.8,204.8 301.5,205.9 302.6,206.8 303.4,206.1 304.1,207.1 
			302.6,208.9 302.2,210.3 302,211.2 298.6,211.2 296.3,209.6 294.6,209.6 295,210.7 298.2,213.1 303,213.3 304.3,212.4 
			305.5,213.1 306.4,211.6 307.3,212.4 311.7,212.2 312.9,213.3 314.7,213.3 314.7,214.5 311.7,214.7 311.7,215.8 312.9,217.9 
			315.2,216.2 317.3,216 319.6,213.9 323.4,215.4 325.9,212 326.5,208.2 327.8,206.6 330.7,205.2 332.8,205.2 337.1,203.6 
			341.7,204.5 345,201.3 350.5,198.3 350.7,196.2 354.3,196 359.3,200.1 361.2,198.1 364.7,193.7 364,191.8 		"/>
	</g>
	<g id="pdl">
		<polygon fill="#C6C6C6" stroke="#FFFFFF" stroke-width="0.25" stroke-miterlimit="10" points="318.9,242 318.6,239.7 317.1,239.5 
			315.6,240.4 316.5,242.2 318.6,243.5 322.3,246.6 321.5,244.5 		"/>
		<polygon fill="#C6C6C6" stroke="#FFFFFF" stroke-width="0.25" stroke-miterlimit="10" points="311.9,255.4 311.4,257.5 
			314.3,258.6 315.6,258.9 316.3,257.4 312.9,255.2 		"/>
		<polygon fill="#C6C6C6" stroke="#FFFFFF" stroke-width="0.25" stroke-miterlimit="10" points="440.4,181.3 441.9,180.9 
			444.2,179.8 443.1,178.6 440.4,177.7 437.5,177.9 433.4,172.9 431.8,174.4 424.4,169.8 421.3,166.8 419.4,161 413.9,162.2 
			413.7,164.5 407,165.8 406.8,163.5 406.8,162.2 404.7,162.6 403.3,160.3 403.8,156.6 401.9,155.3 400.1,157.6 396.1,159.9 
			391.5,159.1 389.2,160.5 387.1,160.3 387.1,162.6 384.1,163.3 383.2,160.8 381.8,161.4 381.8,163.1 380.5,163.5 378.8,161.5 
			377.4,161.5 376.5,159.1 375.7,158 372.3,157.6 370.7,158.7 367.7,159.2 366.8,164.3 368.1,167.5 366,172.1 368.1,180.5 
			367.9,184.2 369,187 364,191.8 364.7,193.7 361.2,198.1 359.3,200.1 354.3,196 350.7,196.2 350.5,198.3 345,201.3 341.7,204.5 
			337.1,203.6 332.8,205.2 330.7,205.2 327.8,206.6 326.5,208.2 325.9,212 323.4,215.4 319.6,213.9 317.3,216 315.2,216.2 
			312.9,217.9 312.7,219.1 310.8,218.9 309.1,221 307.3,220.6 309.7,225.1 308.7,225.6 307,226.3 310.8,228.4 313.3,228.1 
			315.4,228.6 317.1,230.2 320.9,228.1 323,225.6 330.2,225.6 334.3,227.7 337.4,231.1 333.7,230.5 329.1,227.9 323.4,228.4 
			322.8,230 323,233.2 322.8,234.5 320,234.5 320,236.2 327.4,239.3 328.8,241.6 328.4,244.3 323.2,249.8 323.4,253.4 327.6,258.2 
			328.8,259.3 331.2,260.5 332.2,262.6 334.6,267.4 335.1,271.1 336.7,271.6 337.2,273.4 341.1,276.5 345.5,277.6 347.8,278.8 
			348.6,280.9 353.1,281.5 354.1,283.4 357.7,285.1 358,283.2 362.1,283.6 366,282 367.3,281.1 369.8,279.2 369.8,281.3 
			368.6,284.1 372.3,284.1 376,284.8 377.6,284.1 382.2,283.6 385.1,280.9 383,279.2 380.9,281.1 380.7,274.2 382.8,272.5 
			383,268.1 381.6,267 379.5,260.3 378,257.8 379.7,255.7 379.5,254.4 378,254.4 374.4,250.3 374.4,248.7 372.3,246.4 382.7,245.9 
			385.5,244.8 384.1,242.5 385.3,240.8 387.6,240.4 389.9,241.6 392.9,239.5 395.9,239.9 400.1,240.1 401.5,239.5 403.8,239.7 
			407.2,236.2 408.2,236.8 409.3,234.3 409.3,230.2 409.3,227.4 413.1,224.2 413.5,220.6 415.6,216.2 414.6,215.1 414.2,213.5 
			416.9,210.7 420.7,212.6 422.5,213.3 423.2,212.4 420.4,210.3 421.1,209.3 423.2,209.9 426.7,209.9 431.8,206.1 430.1,205 
			430.1,204.2 430.9,203.6 434.5,202.5 437.3,199.6 437.7,194.8 439.6,194.3 440.8,190.8 440.8,188.7 441.5,187 438.9,186.4 
			439.8,183.2 		"/>
	</g>
	<path id="normandie" fill="#C6C6C6" stroke="#FFFFFF" stroke-width="0.25" stroke-miterlimit="10" d="M476.4,113.1l-3.5-4.2
		l1.2-0.9l0.2-2.1l0.4-2.3l-1.7-0.9l0.9-2.8l-1.7-0.9c0,0-0.7-1.7-0.9-2.3c-0.2-0.7,1.9-3,1.9-3l-0.2-1.7l-1.9,0.7l-0.9-0.9l4.2-3.2
		l-1.4-5.1l-4.4-8.2l-3.2-2.1l-4.8-2.5l-6.5,5.5l-5.8,2.5l-2.8-0.4l-5.3,2.1l-8.8,1.1l-7.8,5.1l-5.3,2.1l-3,5.1l-2.8,7.2l2.1,1.2
		l0.7,0.9l-1.2,0.2h11.8l-5.3,2.8l-3.4-0.7l-2.3,0.9l-6.9,5.5l-4.8,0.9l-2.5-0.2l-3.2-2.1l-17.8-1.7l-2.8-1.7l-2.3-1.2l-4.6,0.7
		l-1.4,3.4l-2.7-0.8l0.2-2.3l0.7-2.3l-2.8-4l-2.5-3l4-3.7l-0.4-3.2l-2.1-1.9l-4.2-1.2l-4.6,2.8l-1.7-0.3l-1.9,1.2l-1.7-1.2l-2.1-0.4
		l-6.1-3.4l-1.9-0.4l-0.9,1.2v1.4l3.5,3v4l-1.9,1.9l0.4,2.1l1.2,1.9l0.7,4.8l1.4,0.4l1.9,3l1.9,3.7l1.2,2.8h1.4l-0.2,2.1l0.4,1.7
		l-1.7,2.8l0.4,1.7v3l0.4,1.7h1.6l-0.4,2.8l0.7,1.2L349,138l1.4,2.3v2.5l-0.7,1.4l3.5,3.5l4-0.7L357,149l-3.7,1.9l-3.7-0.2l1.4,2.3
		l1.1,5.3l5.5,1.9l3-3.4l2.3,0.9h3.5l1.4,1.9l3-0.7l1.7-1.1l3.4,0.4l0.9,1.1l0.9,2.5h1.4l1.7,1.9l1.2-0.4v-1.7l1.4-0.7l0.9,2.5
		l3-0.7v-2.3l2.1,0.2l2.3-1.4l4.6,0.9l4-2.3l1.9-2.3l1.9,1.2l-0.7,3.7l1.4,2.3l2.1-0.4v1.2l0.2,2.3l6.7-1.2l0.2-2.3l5.5-1.2l1.9,5.8
		l3.2,3l7.4,4.6l1.7-1.4l4,5.1l3-0.2l-1.9-5.1l-0.4-3.2l2.1-2.3h3.5l2.5-3.4L445,162l0.9-1.7V158l-3-1.9l-2.8-2.5V150l3.7-3.2
		l6.5-0.4l5.1-1.2l2.3,0.7l3.5-0.7l0.2-2.1l3.5-4.4v-3.2h2.3l0.2-3.4l-2.8,0.9l-1.1-3.4l4.8-3l4-5.1l0.2-3.5l1.2-1.4l2.1-0.4
		l1.2,0.7l-0.2-1.4L476.4,113.1z"/>
	<path id="acal" fill="#C6C6C6" stroke="#FFFFFF" stroke-width="0.25" stroke-miterlimit="10" d="M713.7,123.5l-2.8-1.7l-0.7-2.1
		l-1.2-0.4l-3.2,2.3l-2.3-1.7l-1.9,1.4l-4.2-0.9l-5.3-3l-0.7-2.5l-4.6,0.7l-1.4,2.8h-6.7L677,117l-2.5,0.4l-0.7-3.4l-6.7-1.4
		l-0.4,3.7h-2.3l-2.8-1.7l-1.2-3l-2.5-4l-1.7-4l-4.8-4l-3.7-0.2l-5.3-2.3l-4.8,4.4l-2.3,0.2l-0.9-0.7l-0.9-2.5l-4.1-0.2l-1.7-2.8
		l-6.5,3.2h-3l-1.2,0.2l-4.2-6.1l-2.1,0.7l-3.2-4.6l-3.2-0.4l-6.1-5.8l-3.7-0.4l-1.9,0.9l-1.2-0.4L592,82l0.4-2.3l-0.4-0.7l0.2-0.7
		v-2.5l-3.7-2.1l2.3-6.5l0.2-4l-1.9-0.7l-4.8,3.7l-2.5,6.3l-2.3,1.7l-6.7,0.7l-2.8-0.9h-3.7l0.2,1.9l0.9,2.8l-0.4,1.4l-0.2,5.7
		l-4.6,8.4L560,94v3.2l-0.2,4.2v4.6l1.2,0.9l-0.9,2.1l-4.6-1.2l-1.7,1.4l0.9,0.9l-0.7,0.9l-1.7-0.2l-5.1,1.1l-0.9,3l1.9,4.2l1.9,1.2
		l-0.9,2.3l-2.1-0.7l-1.9,1.2v2.3l1.7,0.7l1.1,4.2l-1.2,1.2l-0.4,3l-2.8,1.9l-1.7,4.6l-1.2,1.4l-0.9,3.7l1.7,2.1l-0.9,4h3.5l0.2,2.3
		l-2.1,1.2l-0.4,1.9l-2.5,0.7l1.4,3l-2.1,1.2l-0.2,4l0.9,2.8l2.8-1.7l4.6,7.4l-1.7,2.8l1.4,0.9l1.2-0.9l1.7,1.4v0.9l2.8-1.2l1.4,1.4
		v2.5l1.4,2.5l1.9-0.2l-0.2,2.8h2.1c0,0-0.7,2.1,0,3c0.7,0.9,1.7,1.2,1.7,1.2l6.5-1.9l3.5-0.2l1.9,0.9h1.2l0.9-1.9l3.5-0.4l4.8,0.4
		l0.7-3l3.2-0.9l2.3,0.7l3,0.2l1.2,1.9l1.9,0.7v3.2l1.4,1.4l1.4-1.7l0.4,2.8c0,0,1.7-0.2,1.9,1.4c0.2,1.7-1.9,5.3-1.9,5.3l8.8,6.7
		l0.7-2.1l3,3l-0.9,2.3l1.2,0.9l2.3-1.9l2.8-0.4v-2.3l2.1-2.3l4-0.7l1.2,0.4l1.9-0.7h1.9l2.5-4.6l-2.1-1.4l0.9-2.5l1.4-1.4h1.9
		l0.4-1.7l1.9-0.9l0.7-1.7l0.2-2.3l0.7-1.7l1.2,0.2l0.2,3.2l2.5-1.9l0.9-3.7l2.1-1.7l1.4,0.9l-0.2,3l2.1,2.1h2.5l2.1-1.7l3.7-0.7
		l3.5,3.5l4.4-2.8l3.5,3.5l5.7,4.4l1.9-2.3l0.4,3.7l3.5,0.2l2.8,4.4l-1.4,4.4l1.4,2.1l1.9,0.2l1.9,1.9l1.7,3.5l1.4,2.8l4.2,0.9
		l6.1-1.7l-0.7-0.9v-1.2l4-4.4l-0.2-2.8l1.7-2.3c0,0-1.9-3-1.9-3.7c0-0.7,0.9-2.3,0.9-2.3l-0.4-1.9l0.7-5.3l1.2-3.2l0.2-3.2
		l-1.4-2.1l-0.7-4l1.4-4.6l3.7-8.6l-0.2-3.5l1.7-7.6l-0.2-4.8l4.4-6.5v-2.1l0.9-2.5l2.8-1.9l4.8-11.1L713.7,123.5z"/>
	<path id="bfc" fill="#C6C6C6" stroke="#FFFFFF" stroke-width="0.25" stroke-miterlimit="10" d="M679.9,216.2l0.4-3.2l5.8-1.1
		l-1.7-3.5l-1.9-1.9l-1.9-0.2l-1.4-2.1l1.4-4.4l-2.8-4.4l-3.5-0.2l-0.4-3.7l-1.9,2.3l-5.7-4.4l-3.5-3.5l-4.4,2.8l-3.5-3.5l-3.7,0.7
		l-2.1,1.7h-2.5l-2.1-2.1l0.2-3l-1.4-0.9l-2.1,1.7l-0.9,3.7l-2.5,1.9l-0.2-3.2l-1.2-0.2l-0.7,1.7l-0.2,2.3l-0.7,1.7l-1.9,0.9
		l-0.4,1.7h-1.9l-1.4,1.4l-0.9,2.5l2.1,1.4l-2.5,4.6h-1.9l-1.9,0.7l-1.2-0.4l-4,0.7l-2.1,2.3v2.3l-2.8,0.4l-2.3,1.9l-1.2-0.9
		l0.9-2.3l-3-3l-0.7,2.1l-8.8-6.7c0,0,2.1-3.7,1.9-5.3c-0.2-1.7-1.9-1.4-1.9-1.4l-0.4-2.8l-1.4,1.7l-1.4-1.4v-3.2l-1.9-0.7l-1.2-1.9
		l-3-0.2l-2.3-0.7l-3.2,0.9l-0.7,3l-4.8-0.4l-3.5,0.4l-0.9,1.9h-1.2l-1.9-0.9l-3.5,0.2l-6.5,1.9c0,0-0.9-0.2-1.7-1.2
		c-0.7-0.9,0-3,0-3h-2.1l0.2-2.8l-1.9,0.2l-1.4-2.5v-2.5l-1.4-1.4l-2.8,1.2v-0.9l-1.7-1.4l-1.2,0.9l-1.4-0.9l1.7-2.8l-4.6-7.4
		l-2.8,1.7l-0.9-2.8l-1.2-0.2l-2.5,1.9l-1.9-0.2l-2.3,0.7l-3-1.9l-2.1,0.7l-0.2,2.3l-1.7,3.5l1.9,0.7l-0.4,1.9l-2.8,4.4l2.5,2.3
		l0.4,1.7l3.5,4.4l-0.2,3l-5.3,4.2l0.9,1.7l1.2,0.4l-0.4,1.4l-0.7,2.5l-4,0.7l-2.3-0.7l-0.9,0.9l0.7,3.5l2.3,0.7l2.1,2.5l0.9,4.4
		l-1.7,1.4l-1.9,2.1l2.5,6.5l-1.4,4.8l3.5,3.7l1.7,5.3l1.4,7.6l1.4,2.5l-0.9,3l-0.4,4.6l-1.9,2.1l0.9,2.3l1.9,1.7l3,2.8l4.2-1.9
		l1.9,1.4l1.9-1.7l2.8,1.9l-0.7,2.1h0.9l1.4-1.4l2.5-0.2l-0.7-2.8l3-0.9l1.2,2.3l1.9,1.7l1.9,3.7l0.9,0.4l0.2,4.2l8.2,1.9l0.9,1.2
		v5.8l0.4,2.1l-0.4,1.7l-2.3-0.7v2.1h-1.2l-0.2,1.2l0.9,2.1l1.2,2.1c0,0,5.7,0.4,7.4,0.4c1.9,0,4-0.4,4-0.4l1.4,1.9l2.1-0.4l0.7-1.7
		l1.7,0.4l0.4-1.4l0.2-4l4.8-0.4l1.9-0.4l1.2,1.4l3.2-2.5l2.3,1.7l-1.2,1.9l0.2,2.5l1.7,1.2l2.1,0.4l1.2-4.4l2.1-2.3l0.2-1.9
		l-0.4-1.9l3-9.2l2.1-0.7l1.4,0.9l4.8-0.9l0.9,1.4l4.2,2.1l0.7,2.3l2.1,0.4l0.2,1.9l1.7,1.7l1.2-0.7l2.1,0.9l0.7,1.4l-1.2,1.4l3,0.4
		l3-3.5h2.5l1.2,3l5.3,0.7l2.8-3l2.8-4.2l2.3-2.8l0.2-3.2l3-3l0.2-1.7l-1.4-1.4l4.6-6.5l8.4-6.3l0.4-4.8l-0.7-2.5l8.8-4.8v-2.5
		l4.8-4.6l7.4-13.2l-5.7-0.2L679.9,216.2z"/>
	<polygon id="cvl" fill="#C6C6C6" stroke="#FFFFFF" stroke-width="0.25" stroke-miterlimit="10" points="529.1,188.5 525.5,184.1 
		525,182.3 522.5,180 520.6,179.7 518.5,179.8 516.9,180.7 516.2,178.8 512.9,181.6 510.9,180.7 503.2,180.9 504,179.5 506.2,176.7 
		503.4,175.1 501.7,171.4 499.6,170.8 497.3,169.1 495.4,171.2 492.5,169.8 491,170.4 485.6,172.3 485.6,169.3 484.3,167.9 
		484.5,165.8 482.9,163.5 480.3,163.8 475,159.1 474.8,155.3 469.6,149.6 469.8,146.4 468.6,144.8 468.8,140.6 467.7,138.3 
		467.3,135.3 465,135.3 465,138.5 461.4,142.9 461.2,145 457.6,145.6 455.3,145 450.3,146.2 443.8,146.7 440,149.9 440,153.4 
		442.7,155.9 445.7,157.8 445.7,160.1 444.8,161.8 446.3,163.8 443.8,167.3 440.1,167.3 438.1,169.6 438.5,172.8 440.4,177.7 
		443.1,178.6 444.2,179.8 441.9,180.9 440.4,181.3 439.8,183.2 438.9,186.4 441.5,187 440.8,188.7 440.8,190.8 439.6,194.3 
		437.7,194.8 437.3,199.6 434.5,202.5 430.9,203.6 430.1,204.2 430.1,205 431.8,206.1 426.7,209.9 423.2,209.9 421.1,209.3 
		420.4,210.3 423.2,212.4 422.5,213.3 420.7,212.6 416.9,210.7 414.2,213.5 414.6,215.1 415.6,216.2 413.5,220.6 413.1,224.2 
		409.3,227.4 409.3,230.2 409.3,234.3 408.2,236.8 413.3,241.6 412.6,243.1 414.6,243.3 418.3,243.3 420.4,245.2 420.2,249.2 
		426.2,250 427.4,248.7 429.7,248.3 429.9,246 435,248.3 435.5,251.9 438.9,256.3 440.6,260.5 443.3,263.7 442.3,268.1 448.2,274.2 
		449.2,274.4 452.6,279.7 452.4,282.6 455.1,283.6 458.4,282.4 461,285.3 466.7,280.7 468.3,282.2 473.6,281.8 475,280.3 
		483.1,278.8 487.5,281.3 491.7,279.4 495,279.9 497.5,275.3 502.6,274.6 508.8,273.4 509.9,268.8 509.1,265.8 511.6,262.8 
		513.5,260.9 519.2,260.7 522.5,257.2 525.9,257.4 527.8,255.2 528.2,250.6 529.1,247.7 527.6,245.2 526.1,237.6 524.5,232.3 
		520.8,228.6 522.3,223.7 519.9,217.2 521.7,215.1 523.4,213.7 522.5,209.3 520.4,206.8 518.1,206.1 517.5,202.5 518.3,201.7 
		520.6,202.4 524.6,201.7 525.3,199.2 525.7,197.7 524.5,197.3 523.6,195.7 528.9,191.4 	"/>
	<g id="alpc">
		<polygon fill="#C6C6C6" stroke="#FFFFFF" stroke-width="0.25" stroke-miterlimit="10" points="353.4,300.5 352.4,298.9 
			350.7,296.6 349.6,297.3 350.7,301.7 352.6,304.4 354.5,306.7 355.1,308.8 354.5,309.5 355.4,311.2 356.8,310.1 357.7,307 
			356.8,304.9 356.1,300.9 		"/>
		<polygon fill="#C6C6C6" stroke="#FFFFFF" stroke-width="0.25" stroke-miterlimit="10" points="348.8,288.9 351.3,289.7 
			353.2,291.4 355.7,291.8 356.1,290.3 353.6,288 351.1,287.6 349.4,287.6 349.6,286.6 347.8,287.4 346.2,286.8 347.1,285.7 
			346.2,285.3 344.4,285.7 344,287.4 346.5,289.7 		"/>
		<path fill="#C6C6C6" stroke="#FFFFFF" stroke-width="0.25" stroke-miterlimit="10" d="M507.2,321.1l-2.1-1.7l-3.2-2.5l0.4-2.1
			l4-4.6l4-4.4l-0.4-3.5l-2.1-2.3l-0.4-2.1l1.2-1.2l-1.7-5.1l-4.2-4.2l-1.2-1.4c0,0-1.2,0-1.7,0c0.7,0-2.1-1.7-2.1-1.7l0.2-1.4
			l-3-2.8l-3.4-0.4l-4.2,1.9l-4.4-2.5l-8,1.4l-1.4,1.4l-5.3,0.4l-1.7-1.4l-5.7,4.6l-2.5-3l-3.4,1.2l-2.8-1.1l0.2-3l-3.4-5.3
			l-1.1-0.2l-5.8-6.1l1.1-4.4l-2.8-3.2l-1.7-4.2l-3.4-4.4l-0.7-3.5l-5.1-2.3l-0.2,2.3l-2.3,0.4l-1.2,1.2l-5.8-0.9l0.2-4l-2.1-1.9
			h-3.7l-1.9-0.2l0.7-1.4l-5.1-4.8l-1.1-0.7l-3.4,3.5l-2.3-0.2L400,240l-4.2-0.2l-3-0.4l-3,2.1l-2.3-1.2l-2.3,0.4l-1.2,1.7l1.4,2.3
			l-3,1.1l-10.3,0.7l2.1,2.3v1.4l3.5,4.2h1.4l0.2,1.2l-1.7,2.1l1.4,2.5l2.1,6.7l1.4,1.1l-0.2,4.4l-2.1,1.7l0.2,6.9l2.1-1.9l2.1,1.7
			l-3,2.8l-4.6,0.4l-1.7,0.9L372,284h-3.7l1.5-2.7v-2.1l-2.5,1.9l-1.2,0.9l-4,1.7l-0.2,3.2l-3,2.1l-1.2,2.8l0.4,1.9l3.2,4l1.9,3.5
			l-1.9,1.2l1.9,0.7l-0.4,1.7l3,0.2l-2.8,1.4l0.7,1.4l-2.1,3.7c0,0-1.7-1.9-1.7-0.9c0,0.9,0,2.5,0,2.5l0.9,0.2l-0.2,1.7l-2.1-0.9
			l-1.9,0.9l-1.2,4.6l6.1,4.2l10.7,10.1l0.9,2.1l3.7,6.9l0.2,1.4l0.9,8.4l1.7,4.4l1.7,1.7l1.9,1.4l-1.4,0.4l1.2,1.7l-0.2,1.7
			l-1.4-1.4l-2.8-3.1l-2.3-3.2l-0.7-4.8l-2.1-8.2l-3.5-5.7l-6.7-6.9l0.9-1.9l-0.9-1.9l-2.1,0.2v1.7l-1.7,1.4l-0.2,3
			c0,0-1.4,14.1-3.2,24.1c-1.9,10.1-2.3,18.5-3.5,21.5c-1.2,2.8-0.9,5.3,0,4.8c0.9-0.4,1.7-4,1.7-4l3.2-4.8l4.2,3.5l0.7,1.4l1.4,1.4
			l0.2,0.9h-5.8l-1.7-0.4l-3.2,5.1l-0.4,1.2l0.4,3.7c0,0-7.2,43-12.6,53.2l-2.1,2.8l-1.7,2.1l-1.2,1.9l-3.2,2.3l-4.4-0.2l0.2,1.7
			l2.8,3.5l3.5,0.2l0.2,3l1.7,1.2l3-1.2l2.3,0.9l2.8,0.9v1.4l-1.7,1.2l-0.9,4.4l-1.9,2.1l0.2,1.7l3.2,1.4l2.1-0.4v-3.2l1.7-0.4
			l0.9,0.9v1.9l4.4,0.9l2.1,1.7l3-0.2l4.6,4.2l2.3,0.2l5.8-0.7v4.4l3.2,2.3l3.2,4h1.9l1.2-2.3l3,2.3l3.2-2.3h2.8L388,486l0.4-5.1
			l2.1-3l1.9-0.2l1.2-4.2h1.9l4-3.5l1.4-4.2l-1.2-2.1l1.4-2.1l1.9,0.4l-1.4-3.2l0.2-3.5l-2.3,2.3l-1.9-0.9l2.5-3.7l-0.9-3.7
			l-1.7-0.4l-0.2-2.1l-1.9-0.4h-3.2l0,0l-1.7-1.9l1.7-2.5l-0.4-2.5l1.2-0.7l0.9-8.8l-0.7-1.4l2.8-1.7l4.6-3l1.7,1.4l-0.9,0.7
			l0.4,1.7l2.8,0.7l0.4-3.2l0.9-1.2h1.7l1.7-0.9c0,0,3.2-0.7,4-0.7c0.7,0,4,0.2,4,0.2l4-2.1l3.7-0.4l1.4-1.4l3.2,1.9l3.7-1.1
			l0.9-1.9l5.7-1.7l-1.4-1.9l1.9-2.1l1.7-3.5l-3.7-1.9l1.7-3l0.7-1.9l2.1,1.7l4-0.9l-3.5-8l0.2-2.3h3.2l1.9-1.9l3-2.1l-0.4-2.5
			l7.4-4.8l-0.4-2.1l5.3-4.8l-0.2-6.7l-1.2-1.9l1.4-1.9l3.5-0.4l1.7,0.4h2.5l1.7,1.7l1.7,2.8l2.3,2.5h3.5l3-4l2.1,0.9l2.8-0.2
			l2.3-2.5l-0.7-4.4l1.7,0.2l4-6.5l-1.9-0.9l-0.4-2.5l7.8-4.6l1.2-4l2.1,0.9h1.9l1.2-1.7l-1.2-1.4l1.2-2.3l-0.2-3l0.7-1.2l-1.9-3.2
			l-0.7-3l2.5-0.9L507.2,321.1z"/>
	</g>
	<g id="paca">
		<polygon fill="#C6C6C6" stroke="#FFFFFF" stroke-width="0.25" stroke-miterlimit="10" points="720.7,405.3 718.4,404.6 
			715.8,405.7 713.1,406.1 711,408 704.7,406.9 700.1,406.1 696.9,403.6 693.6,401.5 692.9,398.3 688.3,394.2 688.3,391.2 
			690.6,390.8 690,388.9 687.4,387.2 687,384 690,379 690.4,375.9 692,374.3 694.6,375.2 695.2,373.8 691.3,368.5 689.3,365.5 
			683.5,364.8 680.5,363 679.1,360.5 679.7,356.5 677,355.7 674.9,353.2 675.3,351.9 672.8,350.9 670,350.2 668.4,351.7 
			669.1,353.5 667.1,355.3 664.7,354.4 663.3,351.9 659.5,351.4 658.7,354.4 658.5,357.2 660.1,358 662.2,358 663.5,360.7 664,366 
			656.4,366 648,369.5 649.2,371.3 645.3,374.1 643.5,372.5 642.3,376.1 643.5,376.7 643.9,377.5 639.3,380.1 636.8,379.2 
			635.6,380.1 635.6,383.8 634.1,387.4 634.9,389.3 633.7,391.2 632.2,391 628.6,390.5 628.4,392.6 629.8,394.2 627.8,394.2 
			627.8,396.9 629.7,398.6 636.2,399 636.4,401.5 638.5,402.8 638.5,406.5 636.8,407.4 638.5,409 636.8,409.2 635.3,407.6 
			633.7,410.1 632,411.6 629.3,411.6 627.8,409.7 626.3,409.5 624.9,407.2 621.7,406.7 620.8,406.1 616.9,406.1 615.6,405.3 
			616.2,402.1 613.8,403 609.7,402.5 605.5,405.5 602,405.3 600.7,402.3 596.9,401.5 595.6,403.7 596.5,406.5 599.2,409.7 
			599.5,413.9 604.5,421.7 598.6,428.4 596.7,429.2 597.1,434.5 594.8,439.3 590.6,439.5 587.9,444.4 588.3,446.2 586.2,447.5 
			583.7,450 580.7,450.9 580.3,452.7 582,452.3 582.4,453.6 582,454.6 586.4,453.6 588.7,453.4 591.6,453 592.5,453 592.5,452.3 
			591.4,452.1 590.4,452.1 590,450 591.4,448.5 591.6,447.1 593.5,446 596.5,446.2 598.1,447.1 598.1,448.3 597.6,449.8 
			597.7,450.4 598.4,451.3 597.9,452.3 596.5,452.7 595,452.7 593.7,452.3 593.3,452.5 593.2,453.2 594.2,453.8 596,454.6 
			595.8,456.9 596.5,458.6 599.9,459.2 602.3,458.5 603.6,458.2 605.7,458.2 607.6,460.1 608.5,459.5 607.6,458.6 605.3,456.5 
			604.1,455.5 605.1,455 606.8,456.9 609.5,458.6 609.7,457.6 608.3,456.7 607.4,455.5 606.4,454.4 605.5,453.4 605.3,452.7 
			606.4,452.5 607.4,453.4 608.3,453.2 607.8,451.7 608.5,451.7 609.7,453.4 611.8,453.6 612.2,454.2 613.5,455.9 615.6,454.8 
			615.4,452.5 614.1,452.1 613.9,450.9 614.1,447.1 615.4,447.9 617.9,448.5 619.6,451.9 621,450.6 622.8,451.3 622.6,453.4 
			620.5,455.3 618.3,455.5 615.9,455.7 613.5,456.7 613.3,458.2 615,459.2 619.4,459.2 623.6,458.6 625.2,456.9 627.5,458.6 
			627.8,460.5 628.2,462.2 628.6,463.4 627.5,464.5 628.6,465.7 632.8,465.5 636.8,465.9 639.1,467.5 641.2,466.8 642.3,467 
			643.4,468.5 648.6,470.4 648.1,471.9 648.1,473.3 649.7,473.8 651.5,472.3 653,472.4 653.2,471.9 652.2,471.7 651.5,470.4 
			652.6,470 654.5,470.6 656.6,470.8 657.2,471.7 658.9,472.4 659.7,471.7 660.6,471.7 661.2,473.5 660.3,474.4 660.6,475 
			662.2,474.6 662.2,475 665,475 666.4,473.8 665.6,472.9 664.7,473.5 663.3,474 662.9,474.2 662.7,473.8 662,473.5 661.8,472.9 
			662,471.7 662.9,470.4 665.4,470 666.8,469.6 670,471.2 671.7,470.6 671,468 672.3,466.8 676.7,466.6 680.1,464.5 682,465.4 
			684.1,464.1 684.1,462.2 683,461.3 684.3,459.7 684.1,457.8 680.5,458.6 680.1,457.6 683.2,455.7 686.6,450.4 690.2,450.4 
			692.9,448.5 693.9,446.5 694.8,445.6 694.8,443.9 695,442.1 697.5,442.1 699.2,441.8 700.9,442.3 701.7,441.2 701.7,436.6 
			703.8,435.1 706.8,433.5 708.4,433.6 709.1,432.6 711,431.7 711,430.1 711.6,428.6 713.5,428 714.2,428.8 718.4,426.1 
			717.7,422.5 715.4,419.6 716.3,418.1 717.5,417.8 718.4,416.4 722.3,412.4 723,407.6 		"/>
		<polygon fill="#C6C6C6" stroke="#FFFFFF" stroke-width="0.25" stroke-miterlimit="10" points="675.3,471.2 674.4,472.7 
			674.9,472.9 675.5,472.7 677,471.4 677,470.6 676.5,470.6 		"/>
		<polygon fill="#C6C6C6" stroke="#FFFFFF" stroke-width="0.25" stroke-miterlimit="10" points="673.2,472.7 671.5,473.5 
			671.5,474.4 674,474 674,472.9 		"/>
		<polygon fill="#C6C6C6" stroke="#FFFFFF" stroke-width="0.25" stroke-miterlimit="10" points="607.6,402.1 609.9,401.1 
			611.8,399.2 612.2,397.7 610.6,396.9 608.7,396 606.9,396.5 605.9,398.6 605.1,401.1 605.7,402.1 		"/>
	</g>
	<g id="lrmp">
		<path fill="#C6C6C6" stroke="#FFFFFF" stroke-width="0.25" stroke-miterlimit="10" d="M599.5,413.9l-0.2-4.2l-2.8-3.2l-0.9-2.8
			l-4.6-3l-3.7-0.2l0.2,3l-1.9,0.2l-0.4-1.9l-2.5-0.9l-2.8,1.7l-2.3,1.9l-3.5-1.9l-2.1,1.2l-0.9-0.7v-6.7l-3-1.9l-1.7-6.7l-2.1-0.9
			l-0.4-3l-1.4-4.2l-1.4-0.9l-0.9-2.5l-3-3.4h-3.5l-1.2-2.1l-2.5-0.2l-0.4,1.9l-4.2,2.1l-0.2-4l-1-2.4l-2.5-3l-3,3l-2.1,0.9
			c0,0-1.7,1.9-1.7,2.8s-3-2.1-3-2.1l-1.7,0.2l0.2,5.7l-2.1,0.9l-0.4,6.1l-1.7,1.9l-1.7-2.3l-0.4-4l-1.7-1.7l-0.9-4.4l-2.3-1.2
			l-1.4,0.4l0.7-2.8l-1.7-1.2l-5.1,4l-6.5,13.9h-4l-1.2-2.1l-5.1,0.9l-0.4,1.6l-2.5-4.8l0.4-5.8l-2.3-3v-2.8l-2.1-2.8l-2.8,0.2
			l-2.1-0.9l-3,4h-3.5l-2.3-2.5l-1.7-2.8l-1.7-1.7h-2.5l-1.7-0.4l-3.5,0.4l-1.4,1.9l1.2,1.9l0.2,6.7l-5.3,4.8l0.4,2.1l-7.4,4.8
			l0.4,2.5l-3,2.1l-1.9,1.9H443l-0.2,2.3l3.5,8l-4,0.9l-2.1-1.7l-0.7,1.9l-1.7,3l3.7,1.9l-1.7,3.5l-1.9,2.1l1.4,1.9l-5.7,1.7
			l-0.9,1.9l-3.7,1.1l-3.2-1.9l-1.4,1.4l-3.7,0.4l-4,2.1c0,0-3.2-0.2-4-0.2c-0.7,0-4,0.7-4,0.7l-1.7,0.9h-1.7l-0.9,1.2l-0.4,3.2
			l-2.8-0.7l-0.4-1.7l0.9-0.7l-1.7-1.4l-4.6,3l-2.8,1.7l0.7,1.4l-0.9,8.8l-1.2,0.7l0.4,2.5l-1.7,2.5l1.7,1.9h3.2l1.9,0.4l0.2,2.1
			l1.7,0.4l0.9,3.7l-2.5,3.7l1.9,0.9l2.3-2.3l-0.2,3.5l1.4,3.2l-1.9-0.4l-1.4,2.1l1.2,2.1l-1.4,4.2l-4,3.5h-1.9l-1.2,4.2l-1.9,0.2
			l-2.1,3l-0.4,5.1l0.4,4.2l4.4,3.5l2.3-0.2l3.7,4.8c0,0,2.1,0.9,2.8,1.2c0.7,0.2,4.8-0.4,4.8-0.4l2.5-1.2l2.8,0.4l0.9,1.4l1.2,1.7
			l3-3l3.5,1.4l7.4,0.4l3,1.2l0.4-0.9l-1.9-2.3l-0.2-5.7l2.1-1.7l3.7,0.2l3.5,2.1l1.4,0.9l1.9-0.7l5.7,2.5l1.9,2.8l2.1,0.7l6.1-0.9
			l2.8,2.5l1.4,4.6l1.4-0.9l0.7-1.9l4.8,0.2l1.7,1.7l1.4-0.9l2.3,0.7l0.2,1.9l0.9,0.7v2.5l0,0l-1.7,2.8c0.9-0.4,3,0.2,3,0.2l5.1,2.1
			l2.8,2.8c0,0,1.4,1.4,2.1,1.7c0.7,0.2,4-0.9,4-0.9l6.1-2.1l3.7-0.2l4.4,2.8l5.3,1.9h5.3l2.3-1.4l-0.7-0.7l0.9-1.4l2.8-0.7l3-1.7
			l3.5-0.7l1.9-0.4l2.3,0.2l2.3,1.4l4-0.4l-1.9-3.2l-0.4-1.4l-1.9-0.9l-1.2-2.5l-0.9-3.4l-0.9-0.9l0.2-1.2l1.1-0.7l0.2-4.2l-0.9-1.4
			l-3-1.4l-0.4-0.9l0.4-1.7l1.1-1.7l1.9-0.4l0.9-1.1l-0.2-2.5V483l1.1-3.5l-0.9-0.2l-0.9-0.9l0.4-1.4l0.9,0.9l0.9-1.2l-0.2-0.2
			l1.4,0.9l1.4-3.5l3.4-3.7l2.1-1.9l1.9-1.4l3.2-0.2l3.4-0.7l2.5-2.8l-0.2-0.9l-1.1-0.2l0.4-1.4l2.1-2.8l2.8-2.1l1.2,0.4l-0.2,0.9
			l-4.4,4.4v0.9l1.7-0.9l2.5-3l2.5-1.1l2.5-1.2l2.3-1.7l3.4-2.8v-0.6l-3.4,2.5L562,454l-0.2-1.2l0.9-1.1l2.5-1.1l1.9-1.4l5.7-3
			l-0.4,2.1l-1.9,0.7l-2.8,1.2l0.5,0.6l3.7-1.9l1.2,0.4l1.4,0.4l0.9,3l1.4,1.4h3.2l0.2-1.7l0.4-1.7l3-0.9l2.5-2.5l2.1-1.2l-0.4-1.9
			l2.8-4.8l4.2-0.2l2.3-4.8l-0.4-5.3l1.9-0.9l1.2-1.4l4.6-5.3L599.5,413.9z"/>
		<polygon fill="#C6C6C6" stroke="#FFFFFF" stroke-width="0.25" stroke-miterlimit="10" points="397.1,462 398.4,461.8 399.9,460.9 
			399.4,459.5 399,458.5 397.8,459 398.4,459.9 397.1,460.8 		"/>
		<polygon fill="#C6C6C6" stroke="#FFFFFF" stroke-width="0.25" stroke-miterlimit="10" points="395.7,463.9 395,465 396.3,466.2 
			398,465.9 397.8,463.9 396.7,463.4 		"/>
	</g>
	<path id="npdcp" fill="#C6C6C6" stroke="#FFFFFF" stroke-width="0.25" stroke-miterlimit="10" d="M566.4,76.1l-0.2-1.9l-3.2-1.2
		l3-3.2l-1.1-4l-1.9-0.4l-0.4-4.2l2.1-2.3l-0.4-0.7l-1.7,0.2l-1.4-3l-2.3-2.3l-1.7,0.2l-7.4-0.2l-1.4,2.3l-1.7-1.2l-0.2-4.6
		l-2.3-3.5l-2.1-0.9l-1.9,0.9l-0.7-0.9l1.2-0.9l0.4-0.9l-2.8-0.4l-3.2,2.8l-4-4l-0.9-9l-3.7-4.8l-3.5,0.4l-4.8,3.5l-0.9,1.4
		l-5.3-3.7l-1.1-3l-2.3-1.4l-1.9,0.9l-1.1-4l0.7-2.5l0.4-2.3l-4.2-5.3l-9,4l-5.3,1.7l-0.9,0.2l-10.3,0.7l-5.5,1.9l-1.9,2.8l-2.3,0.9
		l-0.4,7.4l-0.4,2.3l0.9,8.2l1.2,1.9l-1.2,1.7l-0.4,6.3l1.7,1.9l-1.2,1.4l-0.4,4.4l2.8,4.4l-4.2-1.2l-5.3,8.4l4.8,2.5l3.2,2.1
		l4.4,8.2l1.4,5.1l-4.2,3.2l0.9,0.9l1.9-0.7l0.2,1.7c0,0-2.1,2.3-1.9,3c0.2,0.7,0.9,2.3,0.9,2.3l1.7,0.9l-0.9,2.8l1.7,0.9l-0.4,2.3
		l-0.2,2.1l-1.2,0.9l3.5,4.2l0.9,2.5l0.2,1.1l-1.9,0.4l-0.4,2.8l1.4,1.7l6.1,0.2l5.7-2.8l3.5,3l4,0.4l1.1-1.7h3.4l3.5,1.9l-0.2,1.4
		l1.4,1.1l2.3-1.7l0.9,1.9l3.7-0.4l2.1,1.9l2.3-1.9l1.2,0.7l2.5-0.7l0.4,2.1l1.2,0.4l1.1-2.1l1.1,0.2l3-2.5l1.9,1.7l0.7,3.4l2.5,3.5
		l1.7,0.7l2.1,3.7l2.1-0.2l4.2,5.1l1.7-4.6l2.8-1.9l0.4-3l1.2-1.2l-1.1-4.2l-1.7-0.7v-2.3l1.9-1.2l2.1,0.7l0.9-2.3l-1.9-1.2
		l-1.9-4.2l0.9-3l5.1-1.1l1.7,0.2l0.7-0.9l-0.9-0.9l1.7-1.4l4.6,1.2l0.9-2.1l-1.2-0.9v-4.6l0.2-4.2v-3.2l2.1,0.4l4.6-8.4l0.2-5.7
		l0.4-1.4L566.4,76.1z"/>
	<polygon id="idf" fill="#C6C6C6" stroke="#FFFFFF" stroke-width="0.25" stroke-miterlimit="10" points="544.4,152.2 540.8,152.2 
		541.7,148.1 540,146 540.8,142.3 542.1,140.8 537.9,135.8 535.8,136 533.7,132.1 532,131.6 529.4,128 528.9,124.6 526.9,122.9 
		524,125.4 522.9,125.2 521.9,127.3 520.6,127 520.2,124.8 517.7,125.4 516.4,124.8 514.1,126.7 512,124.8 508.3,125.2 507.4,123.3 
		505.1,125 503.7,124 503.9,122.5 500.3,120.6 497,120.6 495.9,122.3 491.9,121.9 488.3,118.9 482.6,121.7 476.6,121.5 475,119.8 
		475.5,117.1 477.4,116.6 476.1,116 474.1,116.4 472.7,117.9 472.5,121.5 468.6,126.5 463.7,129.4 464.8,132.8 467.5,131.9 
		467.3,135.3 467.7,138.3 468.8,140.6 468.6,144.8 469.8,146.4 469.6,149.6 474.8,155.3 475,159.1 480.3,163.8 482.9,163.5 
		484.5,165.8 484.3,167.9 485.6,169.3 485.6,172.3 491,170.4 492.5,169.8 495.4,171.2 497.3,169.1 499.6,170.8 501.7,171.4 
		503.4,175.1 506.2,176.7 504,179.5 503.2,180.9 510.9,180.7 512.9,181.6 516.2,178.8 516.9,180.7 518.5,179.8 520.6,179.7 
		522.5,180 525.3,175.6 525.7,173.8 523.8,173.1 525.5,169.6 525.7,167.3 527.8,166.6 530.8,168.5 533.1,167.9 534.9,168.1 
		537.5,166.2 538.7,166.4 538.9,162.4 541,161.2 539.6,158.2 542.1,157.6 542.5,155.7 544.6,154.5 	"/>
	<g id="ara">
		<path fill="#C6C6C6" stroke="#FFFFFF" stroke-width="0.25" stroke-miterlimit="10" d="M694.8,332.4c-4.4-2.1-7.2-5.8-7.6-6.7
			s-0.4-4.8-0.4-4.8l-5.7-2.1l-0.4-1.9l-1.9-2.1l-0.2-1.9l1.4-2.3l1.7-0.7l3.2-1.9l2.1-2.3l0.4-4.2l-1.7-3l-1.4-0.2l-2.3-2.1
			l-1.4,0.4l-0.2-3.5l-0.4-1.4l-2.1-0.2l-0.9-1.9l0.2-3.5l1.7-1.9l0.2-2.1l-1.4-1.2l-2.1-0.9l-0.2-2.1l-2.1-0.9l-2.5,0.4l-3.5,0.2
			h-3.5l-2.1,2.5l-3.5,0.9l-1.7-0.7l-2.1,1.9l-0.4,2.8l2.8,0.9v2.5l-4.2,2.8l-1.9,1.7l-3.5-0.7l-2.1,0.9l-0.4-3.5l3-2.3l1.7-1.9
			l-0.7-2.5l1.7-3.2l-2.5-1.4l-1.4-1.2l-2.3,2.8l-2.8,4.2l-2.8,3l-5.3-0.7l-1.2-3h-2.5l-3,3.5l-3-0.4l1.2-1.4l-0.7-1.4l-2.1-0.9
			l-1.2,0.7l-1.7-1.7l-0.2-1.9l-2.1-0.4l-0.7-2.3l-4.2-2.1l-0.9-1.4l-4.8,0.9l-1.4-0.9l-2.1,0.7l-3,9.2l0.4,1.9l-0.2,1.9l-2.1,2.3
			l-1.2,4.4l-2.1-0.4l-1.7-1.2l-0.2-2.5l1.2-1.9l-2.3-1.7l-3.2,2.5L587,287l-1.9,0.4l-4.8,0.4l-0.2,4l-0.4,1.4l-1.7-0.4l-0.7,1.7
			l-2.1,0.4l-1.4-1.9c0,0-2.1,0.4-4,0.4s-7.4-0.4-7.4-0.4l-1.2-2.1l-0.9-2.1l0.2-1.2h1.2v-2.1l2.3,0.7l0.4-1.7l-0.4-2.1v-5.8
			l-0.9-1.2l-8.2-1.9l-0.2-4.2l-0.9-0.4l-1.9-3.7l-1.9-1.7l-1.2-2.3l-3,0.9l0.7,2.8l-2.5,0.2l-1.4,1.4h-0.9l0.7-2.1l-2.8-1.9
			l-1.9,1.7l-1.9-1.4l-4.2,1.9l-3-2.8l-1.9-1.7l-0.9-2.3l-3.4-0.2l-3.4,3.5l-5.7,0.2l-1.9,1.9l-2.5,3l0.9,3l-1.1,4.6l-6.3,1.2
			l-5.1,0.7l-2.5,4.6l3,2.8l-0.2,1.4c0,0,2.8,1.7,2.1,1.7c0.4,0,1.7,0,1.7,0l1.1,1.2l4.4,4.4l1.7,5.1l-1.2,1.2l0.4,2.1l2.1,2.3
			l0.4,3.5l-4,4.4l-4,4.6l-0.4,2.1l3.2,2.5l2.1,1.7l0.4,4.6l-2.5,0.9l0.7,3l1.9,3.2l-0.7,1.2l0.2,3l-1.2,2.3l1.2,1.4l-1.2,1.7H504
			l-2.1-0.9l-1.2,4l-7.8,4.6l0.4,2.5l1.9,0.9l-4,6.5l-1.7-0.2l0.7,4.4l-2.3,2.5l2.1,2.8v2.8l2.3,3l-0.4,5.8l2.5,4.8l0.4-1.7l5.1-0.9
			l1.2,2.1h4.2l6.5-13.9l5.1-4l1.7,1.2l-0.7,2.8l1.4-0.4l2.3,1.2l0.9,4.4l1.7,1.7l0.4,4l1.7,2.3l1.7-1.9l0.4-6.1l2.1-0.9l-0.2-5.7
			l1.7-0.2c0,0,3,3,3,2.1c0-0.9,1.7-2.8,1.7-2.8l2.1-0.9l3-3l2.5,3l0.9,2.5l0.2,4l4.2-2.1l0.4-1.9l2.5,0.2l1.2,2.1h3.5l3,3.4
			l0.9,2.5l1.4,0.9l1.4,4.2l0.4,3l2.1,0.9l1.7,6.7l3,1.9v6.7l0.9,0.7l2.1-1.2l3.5,1.9l2.3-1.9l2.8-1.7l2.5,0.9l0.4,1.9l1.9-0.2
			l-0.2-3l3.7,0.2l4.6,3l1.2-2.3l0,0l3.7,0.9l1.2,3l3.5,0.2l4.2-3l4,0.4l2.5-0.9l-0.7,3.2l1.2,0.9h4l0.9,0.7l3.2,0.4l1.2,2.3
			l1.4,0.2l1.4,1.9h2.8l1.7-1.4l1.9-2.5l1.4,1.7l1.7-0.2l-1.7-1.7l1.7-0.9v-3.7l-2.1-1.2l-0.2-2.5l-6.5-0.4l-1.9-1.7v-2.8h2.1
			l-1.4-1.4l0.2-2.1l3.5,0.4l1.4,0.2l1.2-1.9l-0.9-1.9l1.4-3.5v-3.7l1.2-0.9l2.5,0.9l4.6-2.5l-0.4-0.9l-1.2-0.7l1.2-3.5l1.7,1.7l4-3
			l-1.2-1.7l8.4-3.5h7.6l-0.4-5.3l-1.2-2.8h-2.2l-1.7-0.9l0.2-2.8l0.9-3l3.7,0.4l1.4,2.5l2.3,0.9l2.1-1.7l-0.9-1.9l1.7-1.4l2.8,0.7
			l2.5,1.1l1.1-2.1l4.6-2.1l2.1,0.9h1.9l0.7-1.9l6.1-2.8l3.5-2.1l-1.4-4.8l1.9-4.4L694.8,332.4z"/>
	</g>
	<polygon fill="#C6C6C6" stroke="#FFFFFF" stroke-width="0.25" stroke-miterlimit="10" points="486.2,513.5 485,513.8 484.7,515.2 
		485.9,516.6 486.6,516.6 487,515.8 	"/>
	<polygon id="corse" fill="#C6C6C6" stroke="#FFFFFF" stroke-width="0.25" stroke-miterlimit="10" points="746.9,492 747.1,488.8 
		746.7,487 745.9,484.7 744.8,481.4 745,478.6 744.6,477.5 745,476.7 744.1,474.2 744.1,472.1 742.9,468.7 739.7,464.5 739.5,464.7 
		739.7,465.7 740.8,467 741.3,468 742,468.7 742.7,470.1 741.3,469.6 740.4,468.3 739.7,466.4 739.4,465.9 738.9,464.3 738.9,461.5 
		739.4,460.9 740.2,455.9 740.4,454.4 739.5,453 739.2,448.1 737.8,444.4 737.8,443 736.6,442.1 735.3,441.6 734.5,441.8 
		733.9,441.4 732.4,442.3 732.2,444.4 732.8,444.6 732.6,445.8 733,446.5 732,449.2 732.2,450.9 732.8,450.9 733,451.9 731.6,453.2 
		733.7,456.3 733.2,457.1 733.9,459.7 732.8,460.8 732.8,462.2 731.6,463.4 729.5,460.5 728.6,460.9 728,459.9 726.5,460.9 
		725.7,460.3 723.4,460.8 720.4,463.1 720.2,464.3 720.9,465.7 719.6,465.5 718.8,467.3 718.1,466.4 717.5,467.3 714.9,467.7 
		714.3,467 713.5,467.8 712.1,468.3 712.1,469.4 708.9,470 708.9,470.6 708.7,472.1 707.6,472.7 706.6,472.3 705.1,471.7 
		704.3,472.4 705.3,473.3 704.9,475.2 704,476.3 702.6,478.8 703.8,478.6 703.6,479.8 702.8,481.4 702.9,482.6 701.1,482.1 
		700.5,484.4 699.2,484.7 698.8,485.5 698,485.1 697.5,486.3 699.2,488.4 700.3,487.4 701.7,487.4 702,488.4 700.9,489.1 
		701.1,489.9 703.4,490.4 704.3,490.2 705.7,492.5 702,493.3 701.5,494.1 699,494.6 699.4,495.3 700.1,495.3 700.3,496.7 700.3,499 
		700.9,499.6 699.9,500.6 701.1,500.6 701.1,501.3 702.8,501.3 705.7,502.9 706.1,501.9 707.6,503.4 707.2,504 708.2,504.4 
		709.1,506.6 708,507.1 705.3,508.9 706.6,510.1 704.9,511.5 703.6,511.2 702.2,512 704,513.8 704.3,516.6 705.3,515.8 707.6,515.6 
		709.8,515.2 710.5,513.5 712.1,514.1 712.9,515.9 711.4,516.6 712.1,518.2 711,518.9 711.6,519.6 711.6,521 710.3,522.3 
		709.3,522.1 709.1,522.5 709.9,523.3 708.9,524.8 707.2,525.4 707.5,526.1 708.9,526.1 708.7,526.7 709.9,527.2 713.3,525.4 
		713.7,525.8 712.4,527.3 713.3,528.4 714.3,527.9 714,527.2 715.4,526.7 715.6,527.9 717,528.2 718.9,527.9 719.1,528.6 
		718.4,529.8 718.1,530.5 717.3,531.6 716.6,531.3 715.2,532.6 714.7,532.1 713.5,533.9 714,534.4 713.5,535.3 714.3,535.5 
		714.5,537.6 716.3,538.1 717.7,538.3 717.3,539.7 718.1,539.9 718.9,539.5 719.4,539.9 720.9,539.7 721.2,541.1 723.2,540.8 
		724,541.8 724.9,540.9 725.8,541.6 726.3,542.7 726.9,541.8 727.4,542.7 728.4,540.9 729,540.9 728.8,543.5 729.7,543.1 
		731.1,543.2 730.1,546.9 731.8,546.2 734.5,548.1 736.4,547.5 736.6,546.4 738.7,544.1 737.8,543.5 736.6,544.8 736.4,543.7 
		738.3,541.1 738.7,540.4 738.5,539.3 738.5,538.1 737.6,537.4 739.4,536.5 739.5,535.3 740.8,534.9 742,532.8 742,532.1 
		741.3,532.3 739.4,532.8 738.3,534.1 737.6,531.9 738.9,530.9 739.7,531.6 741,531.3 741.3,529.8 741.8,529.8 742.3,528.2 
		742,527.2 743.1,526.5 743.1,524.2 742.7,520.8 742.3,520 741.8,515.8 741.8,512.6 742,511.2 741.3,509.9 742.3,509.7 745.2,504.4 
		745.4,502.1 746.7,501.5 747.5,497.7 	"/>
	<path id="martinique" fill="#C6C6C6" stroke="#FFFFFF" stroke-width="0.25" stroke-miterlimit="10" d="M261.7,444.1l-0.2-0.4
		l-0.4-0.2l0.2-0.2l0.2,0.2l0.2-0.4v-0.2l-0.2-0.4l-0.2-0.4h-0.2l-0.2-0.4v-0.7l-0.3-0.8l-0.2-0.2l-0.2,0.4l-0.2-0.2l0.2-0.4
		l-0.2-0.2l0.2-0.2l0.2,0.2h0.2l0.2-0.7l-0.2-0.2l-0.2,0.2H260v-0.2h0.2l0.7-0.2l-0.2-0.4l-0.4-0.4l-0.2,0.2h-0.4l0.4-0.4l0.2-0.4
		l0.4-0.7l0,0l-0.7,0.7V437l-0.4,0.2l0.2-0.4l-0.2,0.2v-0.2l-0.4-0.2l0.2-0.4l0.2-0.2l-0.2-0.2l0.2-0.2l-0.4-0.2l-0.2-0.4
		c0,0-0.4,0.4-0.7,0.4c-0.3,0-0.4-0.2-0.4-0.2l-0.2-0.4l0.2-0.4l-0.4-0.2l-0.2-0.4l0.4-0.4h-0.4h-0.7l-0.4,0.4l-0.4-0.2h-0.4
		l0.2-0.7l0.2-0.2l-0.2-0.2v-1l0.4-0.2h-0.4l-0.2-0.2l-0.2-0.2l0.2-0.2l0.4,0.2l0.2-0.2v-0.4h0.2h0.2v-0.8l-0.2-0.2l-0.4,0.2
		l-0.2,0.4l-0.4-0.2v-0.4l-0.4-0.2l-0.2,0.4l-0.4-0.2h-0.6l-0.2,0.7l-0.4,0.2l-0.4-0.2l-0.4-0.7l-0.2-0.2V429l0.2-0.4l0.2-0.2
		l0.2,0.2v0.2h0.4v-0.2h-0.2l-0.2-0.4l0.4,0.2l0.4-0.4l0.2,0.2l0.2-0.4h0.4v-0.7l-0.4,0.4l-0.4-0.7v-0.7l-0.4,0.2v0.2l-0.4,0.2h-0.4
		l-0.2-0.4l0.2-0.4l0.2-0.4l-0.7,0.2l-0.2,0.2l-0.4-0.4l-0.2-0.4v-0.4h0.4l-0.4-0.2l0.2-0.4l0.4-0.2l0.2-0.4h0.7l0.4,0.2l0.7,0.4
		l0.2,0.4l0.2,0.2l0.2-0.2l0.2,0.2l0.4-0.2l0.2,0.2v-0.9h-0.2l-0.2-0.2l0.2-0.2l0.2-0.2h0.2v-0.4l-0.4-0.4l0.2-0.4l1.4-0.2l0.2,0.7
		l0.2,0.2h0.4l0.2-0.2l-0.4-0.2l0.2-0.4l-0.4-0.4l-0.2-0.7h-0.2l-0.2-0.4l-0.2,0.4l-0.4,0.2l-0.4,0.4l-0.2-0.2l-0.2,0.2l-0.2,0.2
		l-0.4,0.2l-0.2-0.4h-0.7v0.4l-0.7,0.2l-0.4,0.7l-0.2,0.4l-0.2,0.2l-0.4-0.2v-0.7l-0.4-0.7l0.2-0.2l-0.7-0.4v-0.3l-0.7-0.4l0.2-0.2
		l-0.7-0.2l0.2-0.4h-0.2h-0.2l-0.2-0.4l-0.4-0.4l0.2-0.7H249l-0.2-0.2l-0.2,0.4l-0.7-0.4l-0.2-0.7v-0.2h-0.4l-0.2,0.2H247v-0.4
		l0.2-0.2h-0.9l-0.2-0.2l-0.9,0.2h-0.4l-0.7-0.7l-0.7-0.2l-0.2-0.4H243l-0.9-0.7l-0.2-0.2h-0.4l-0.9-0.4H240l-0.4-0.2h-0.4l-0.4-0.2
		l-0.2,0.2l-0.4-0.2l-0.7,0.2l-0.9,0.2l-0.9,0.2l-0.9,0.4l-0.7,0.4l-0.7,0.4l-0.2,0.4l-0.2,0.7l-0.4,0.4v0.7l-0.2,0.4l0.2,0.7
		l-0.2,0.2l0.2,0.9l0.4,0.7l0.4,0.9l0.4,0.2l0.4,0.2l0.2,0.2l0.4,0.7l0.4,0.7l0.4,0.7l0.2,0.7l-0.2,0.9l-0.2,1.1v0.9l0.2,0.9
		l0.4,0.7l0.4,0.7l0.4,0.9l0.2,0.7l0.2,0.2l0.2,0.4l0.4,0.2l0.2,0.2v0.4l0.7,0.2l1.1,0.2l0.7,0.7l0.7,0.7l0.4,0.9h0.4l0.7-0.4h0.7
		l0.2,0.2l0.2-0.2l0.4-0.2l0.2,0.7l0.2-0.2l0.7,0.2h0.4l-0.2-0.4v-0.4h0.4l0.4-0.2l0.4,0.2v0.2h0.2v0.7l-0.4,0.2v0.2l0.4,0.2
		l0.2,0.4h0.2l-0.2,0.7l0.2,0.2v0.4h0.2h0.7l0.4,0.2l0.2,0.4l-0.2,0.4l-0.4,0.2l-0.4,0.4V439h0.4v0.4l-0.2,0.2l-0.4-0.2l-0.2,0.2
		l-0.4-0.2V439H246l-0.2-0.2l0.4-0.4l-0.2-0.7l-0.2,0.4h-0.2l-0.2-0.7v0.4l-0.4,0.2l-0.4,0.7l-0.9,0.2l-0.5-0.5l-0.2,0.4l-0.4,0.7
		l-0.4,0.4l-0.2,0.4l-0.2,0.4l-0.2,0.4l0.4,0.2l0.7-0.2l0.2,0.2v0.4h-0.2l-0.2,0.2h0.4h0.2v0.9l-0.2,0.2l0.2,0.7l0.4,0.2l0.4,0.2
		l0.2,0.7l0.4,0.2l0.7-0.2l0.2-0.2V444l0.4-0.4l0.7-0.2h0.4l0.7,0.2l0.4,0.2v-0.7l0.4,0.2v0.4l0.7,0.2v-0.4v-0.4l0.4,0.2l0.9-0.7
		l0.2,0.4v0.4h0.7v-0.2h0.2l0.7,0.4h0.9l0.7,0.2l0.9-0.2l0.4-0.2l0.2,0.2l0.2-0.2l0.2,0.2l-0.2,0.4l0.9,0.9l0.7-0.2v-0.4l0.4-0.4
		v-0.2h0.4v-0.4h0.4l0.2,0.2l0.2,0.4l-0.4,0.4l0.2,0.2h-0.7l0.2,0.7h-0.2l-0.2,0.2l-0.4-0.2l0.4,0.7l-0.2,0.4v0.4l-0.7,0.7l0.4,0.4
		l0.2,0.2l-0.2,0.4h0.2l0.4,0.4l-0.2,0.4h0.4l0.4,0.2h0.4l0.4-0.4l0.2-0.7l0.2-0.2l0.4,0.2l0.2-0.2l-0.4-0.4l-0.4-0.4V447l0.4-0.2
		l0.2,0.2h0.2l0.2-0.4l-0.2-0.4h0.4l0.4-0.2v-0.9l0.2-0.7l0.4-0.2L261.7,444.1L261.7,444.1z M257.1,423.6v-0.5h-0.3v0.2L257.1,423.6
		z M257.1,429.4l0.2-0.7l-0.4,0.4L257.1,429.4z M256.4,431.7l0.2,0.4l0.2-0.2L256.4,431.7L256.4,431.7z M258.5,432.8v-0.4l-0.4,0.2
		l-0.2,0.2l0.2,0.2L258.5,432.8z M259.5,432.4L259.5,432.4l-0.2-0.2l-0.2,0.4h0.2L259.5,432.4z M258.7,433.5l0.4,0.2l0.2-0.2
		l-0.2-0.2h-0.2l-0.4,0.4L258.7,433.5z M260.6,446.2L260.6,446.2l0.4,0.4v-0.4H260.6z M260.6,447.7L260.6,447.7h0.4H260.6
		L260.6,447.7z M260.4,448.1h0.2v-0.2L260.4,448.1L260.4,448.1z M243.5,438.2L243.5,438.2h-0.4l0.2,0.2L243.5,438.2z M257.2,427.5
		l-0.4-0.2v-0.2h-0.4v0.2l-0.2-0.2l-0.2,0.2l0.4,0.2v0.2h0.2v-0.2h0.2C256.8,427.7,257.2,427.5,257.2,427.5L257.2,427.5z
		 M257.1,427.7L257.1,427.7L257.1,427.7v0.4V427.7L257.1,427.7z M254.9,428.2L254.9,428.2L254.9,428.2L254.9,428.2L254.9,428.2z
		 M255.5,428h0.2v-0.2h-0.2V428L255.5,428z M258.3,433.8L258.3,433.8L258.3,433.8L258.3,433.8L258.3,433.8L258.3,433.8z"/>
	<path id="guyane" fill="#C6C6C6" stroke="#FFFFFF" stroke-width="0.25" stroke-miterlimit="10" d="M263.9,358.2
		c-0.2-0.2-0.7-0.7-0.9-0.9c0-0.2,0-0.2,0-0.4s0.2-0.4,0.2-0.4c0-0.4-0.2,0-0.4-0.2c0,0,0.2-0.9-0.2-0.7c0-0.4,0-0.7-0.2-0.9
		s-0.4-0.4-0.7-0.7c-0.2-0.2-0.9-0.7-1.2-0.2c-0.4,0.4,0.2,1.4,0.2,1.9c0,1.1-0.9,0.9-1.4,1.4c-0.2-0.4,0.4-0.4,0.7-0.4
		c0.2-0.2,0.4-0.4,0.4-0.7c-0.2-0.9-0.4-1.7-0.9-2.5c-0.2-0.4-0.4-0.7-0.9-1.1c-0.2-0.2-0.7-0.4-1.1-0.7c-0.2-0.2-0.2-0.7-0.7-0.7
		c-0.2,0-0.4,0.4-0.7,0.2c0.2-0.2,0.4-0.4,0.2-0.9c-0.2-0.5-0.7-0.4-1.1,0c-0.2,0.2,0,0.4-0.4,0.4c-0.2,0-0.9,0-1.1-0.2
		c0.2-0.2,0.4-0.2,0.9-0.2c0.2,0,0.4,0,0.2-0.4c0-0.4-0.7-1.1-1.1-1.1c0,0.4-0.4,0-0.7,0c-0.2-0.2-0.7-0.4-1.1-0.7
		c-0.4-0.2-0.7-0.7-1.1-0.9c-0.4-0.2-0.7-0.7-1.1-0.9c-0.2-0.4-0.4-0.7-0.7-0.9c-0.4-0.2-0.9-0.2-1.2-0.4c0,0-1.7-1.1-1.2-0.4
		c-0.7,0-1.2-0.2-1.9-0.2c-0.7,0-1.1-0.2-1.7-0.4c-0.7-0.2-1.2-0.2-1.9-0.4s-1.1-0.7-1.7-1.1c-0.4-0.2-0.9-0.4-1.2-0.7
		c-0.4-0.2-1.1-0.7-1.4-0.7c-0.4-0.2-0.7,0-0.2,0.4c0.4,0.2,0.9,0.2,1.1,0.7c-0.7,0-1.1-0.9-1.7-0.7c-0.4,0-0.4,0.4-0.4,0.9
		c-0.2,0.7-0.2,1.1-0.4,1.7c-0.4,0.9-0.7,1.7-1.7,2.3c-0.9,0.7-1.2,1.2-1.9,1.9c-0.2,0.4-0.7,0.7-0.9,1.1c-0.4,0.4-0.4,1.1-0.4,1.7
		c0,0.4,0,1.1,0.2,1.4c0,0.4,0.4,0.7,0.4,1.1c0,0.4,0.2,0.9,0.2,1.2s0.2,1.1,0.2,1.7s0.2,0.9,0.4,1.2s0,0.9,0.2,1.2
		c0.2,0.4,0.4,0.4,0.7,0.7c0.2,0.4,0,0.7,0,1.1c0,0.4,0.4,0.4,0.7,0.7c0.4,0.4,0.7,0.9,1.1,1.2c0.2,0.2,0.4,0.7,0.9,0.9
		c0.4,0.2,0.7,0.2,0.9,0.7c0.2,0.4,0.2,0.9,0.7,1.1c0.4,0.2,0.7-0.2,1.1,0.2c0.2,0.4,0,0.4,0,0.9c0,0.2,0,0.4,0,0.4
		c0,0.2,0,0.4-0.2,0.7c0,0.2-0.2,0.4-0.4,0.7c-0.2,0.2-0.2,0.4-0.2,0.7c-0.2,0.4-0.4,0.7-0.9,1.1c-0.4,0.4-0.9,0.2-1.1,0.9
		c0,0.4,0,0.2,0.2,0.4c0.2,0.2,0.2,0,0.2,0.2c0,0.2-0.2,0.2-0.2,0.2c0,0.2,0.2,0.2,0.2,0.4c0,0.2,0,0.4,0,0.7c0,0.2,0,0.7,0,0.9
		c0,0.2,0.2,0.2,0.2,0.4c0,0.2-0.2,0.2-0.2,0.4s0,0.2,0,0.4c0,0.2-0.2,0.2-0.2,0.4c-0.2,0.2,0,0.4-0.2,0.7c-0.2,0.4-0.7,0.9-0.7,1.2
		c-0.2,0.4,0,1.1-0.2,1.2c-0.2,0.4-0.7,0.4-1.1,0.7c-0.7,0.2-0.2,0.2-0.7,0.7c-0.2,0.4-0.9,0-1.1,0.4c0.4,0.2,0.7,0.4,0.9,0.7
		c0,0,0,0.2,0.2,0.2c0.2,0.2,0.4,0.2,0.7,0.2c0.9,0.2,1.2,1.1,2.1,1.1c0.4,0,0.9-0.2,1.2,0c0.4,0.2,0.7,0.7,1.1,0.7s0.4-0.2,0.4-0.4
		c0.2-0.4,0.4-0.4,0.9-0.4c0.4,0,0.7-0.2,1.1-0.7c0.4-0.2,0.7-0.4,1.1-0.7c0.4-0.4,0.7-1.2,1.2-0.9c0.2,0.2,0,0.2,0.2,0.7
		c0.2,0.2,0.4,0.4,0.7,0.4c0.4,0,0.4,0,0.7-0.4c0.2-0.2,0.2-0.4,0.7-0.4s0.7,0.4,0.9,0.9c0.2,0.5,0.2,0.4,0.7,0.7
		c0.4,0.2,0.2,0.7,0,0.9c-0.2,0.4-0.4,0.9-0.2,1.2c0.9-0.2,1.4-0.2,2.1-0.7c0.4-0.2,0.7-0.2,1.1-0.2c0.4,0,0.7-0.2,1.1-0.4
		c0.7-0.2,1.2,0,1.9-0.4c0.2-0.2,0.2-0.7,0.4-0.9c0.2-0.2,0.2-0.2,0.4-0.2c0,0,0-0.2,0.2-0.2c0.4-0.4,1.1-0.4,1.4-0.7
		c0.2-0.2,0.4,0,0.7-0.2c0.2-0.2,0-0.7,0.2-0.9c0.2-0.2,0.4-0.2,0.4-0.4c0.2-0.2,0.2-0.2,0.4-0.4s0.4-0.4,0.4-0.7
		c0-0.2-0.4-0.4-0.7-0.7c-0.2-0.4,0-0.2,0.2-0.4c0,0,0.2,0,0.2-0.2c0,0,0-0.2,0-0.4c0-0.7,0.2-1.2,0.4-1.9c0-0.4,0.2-0.7,0.4-0.9
		s0.4-0.2,0.4-0.4c0-0.2-0.2-0.2-0.2-0.4c0-0.4,0.4-0.9,0.4-1.1c0-0.4,0-0.4-0.2-0.7c-0.2-0.2-0.2-0.2-0.2-0.4
		c0-0.2,0.7-1.1,0.9-1.2c0.2,0,0.2,0,0.4,0c0.2-0.2,0.2-0.9,0.4-1.1c0.4-0.9,0.9-1.7,1.1-2.5c0.2-0.7,0.7-0.9,0.9-1.4
		c0-0.2,0-0.7,0.2-0.9c0.2-0.2,0.7-0.2,0.9-0.4s0.4-0.7,0.7-0.9c0.4-0.7,0.9-1.2,1.4-1.9c0.2-0.2,0.2-0.4,0.2-0.9
		C263.9,359,264.1,358.6,263.9,358.2C263.5,357.6,264.1,358.6,263.9,358.2z"/>
	<path id="reunion" fill="#C6C6C6" stroke="#FFFFFF" stroke-width="0.25" stroke-miterlimit="10" d="M268.4,503.2c0-0.2,0-0.4,0-0.7
		v-0.2v-0.2l-0.2-0.2v-0.3c0-0.2-0.2-0.2-0.2-0.4c0-0.2,0-0.4-0.2-0.4c-0.2-0.2-0.4-0.2-0.4-0.2c-0.2,0-0.4,0-0.4-0.2
		c-0.2-0.2-0.2-0.4-0.4-0.4c-0.2-0.2-0.2-0.2-0.4-0.4c-0.2,0-0.4,0-0.7,0c-0.4,0-0.7-0.4-0.9-0.9c-0.2-0.4-0.4-0.7-0.9-0.9
		c-0.4-0.2-0.4-0.7-0.7-1.1c-0.2-0.4-0.7-0.7-0.9-0.9c-0.2-0.2-0.4-0.2-0.4-0.4c0-0.2,0-0.4-0.2-0.7c-0.2-0.2-0.2-0.2-0.2-0.4
		c0-0.2,0.2-0.4,0-0.4c0-0.2-0.2-0.2-0.4-0.4s-0.2-0.4-0.4-0.7c0-0.2-0.2-0.2-0.4-0.4c-0.2,0-0.4,0-0.4-0.2
		c-0.2-0.2-0.4-0.7-0.4-0.9c-0.2-0.4,0-0.9,0-1.2s0-1.1-0.2-1.4c-0.2-0.9-0.9-1.7-1.4-2.3c-0.2-0.2-0.4-0.2-0.4-0.4
		c-0.2-0.2-0.2-0.4-0.4-0.4c-0.2-0.2-0.4-0.2-0.7-0.4c-0.2,0-0.2-0.2-0.4,0v-0.2c-0.7-0.4-1.7-0.2-2.3-0.7c-0.4-0.2-0.7-0.4-1.1-0.7
		c-0.2,0-0.4-0.2-0.7-0.2c-0.3,0-0.4,0-0.7,0c-0.2,0-0.4-0.2-0.4-0.2c-0.2,0-0.4,0-0.7,0c-0.2,0-0.4,0-0.7,0s-0.4,0.2-0.7,0.2
		c-0.4,0-0.9-0.2-1.2-0.2c-0.4-0.2-0.9-0.2-1.2-0.4s-0.9,0-1.2,0c-0.2,0-0.4,0-0.7,0c-0.2,0-0.4,0-0.7,0c-0.4,0-0.9-0.2-1.1-0.4
		c-0.2-0.2-0.4-0.7-0.9-0.2c-0.4,0.2-0.7,0.2-1.1,0.2s-0.9,0-1.2,0.2c-0.4,0.2-0.9,0.2-1.2,0.4c-0.2,0.2-0.7,0.4-0.9,0.7
		c-0.2,0.2-0.4,0.2-0.4,0.4c-0.2,0.2-0.4,0.2-0.4,0.4c-0.2,0.2-0.2,0.2-0.4,0.4c-0.2,0.2-0.4,0.2-0.7,0.4c-0.2,0.2-0.4,0.7-0.7,0.9
		c-0.2,0.2-0.4,0.2-0.7,0.2c-0.2,0-0.4,0.2-0.7,0.2c0,0,0.2,0.2,0.2,0.4h-0.2c-0.2,0-0.2,0-0.4,0c0.2,0,0.4,0,0.4-0.2
		c-0.2,0.2-0.7,0.2-0.9,0.2c-0.4,0-0.7,0-1.1-0.2c-0.2-0.2-0.4-0.2-0.7,0c-0.2,0.2,0,0.7-0.2,0.9c0,0,0.2,0,0.2-0.2c0,0,0,0-0.2,0
		c0,0,0.4-0.2,0.4,0c0,0,0,0-0.2,0c0.2,0,0,0.2,0,0.2c0,0.2,0,0.2-0.2,0.2c0,0,0,0-0.2,0v0.2c0,0.2,0,0.4-0.2,0.7
		c0,0.2-0.2,0.4-0.2,0.7c0,0.2,0.2,0.4,0.2,0.7c0.2,0.4,0.2,0.9,0,1.2c0.2-0.2,0.7,0.2,0.7,0.4c0.2,0.2,0.7,0.2,0.9,0.4
		c-0.2,0-0.4,0-0.7-0.2c-0.2-0.2-0.2-0.4-0.4-0.4c-0.4-0.2-0.4,0.4-0.7,0.7c-0.2,0.4-0.7,0.9-1.1,1.1c-0.4,0.2-0.9,0.4-1.4,0.4
		c-0.2,0-0.4,0-0.7,0c-0.2,0.2-0.2,0.4-0.4,0.7c-0.2,0.2-0.2,0.4-0.4,0.4c-0.2,0.2-0.4,0.4-0.2,0.7c0,0.2,0.7,0.7,0.4,0.9
		c0,0.2-0.2,0.2-0.2,0.4c0,0.2,0,0.2,0,0.4c0,0.2-0.2,0.7,0,0.9c0,0.2,0.2,0.4,0.4,0.7c0.2,0.2,0.4,0.4,0.7,0.7
		c0.2,0.2,0.4,0.4,0.7,0.7c0.2,0.2,0.4,0.4,0.9,0.4c0,0.2-0.2,0-0.2,0.2c0,0.2,0,0.2,0.2,0.2c0.2,0.2,0.4,0.4,0.4,0.7
		c0.2,0.2,0.4,0.4,0.7,0.7v0.7v0.2c0.2,0,0.2,0,0.2,0.2c0,0.2,0,0.2,0.2,0.2c0.2,0.2,0.4,0.2,0.7,0.4c0.2,0.2,0.2,0.4,0.2,0.7
		c0,0.4,0,0.7,0,1.1c0,0.2,0,0.4,0,0.9c0,0.2,0,0.2,0,0.4c0,0.2-0.2,0.2-0.2,0.4s0.2,0.4,0.4,0.4c0,0.2,0.2,0.4,0.2,0.9
		c0.2,0.2,0.2,0.4,0.2,0.7c0.2,0.2,0.4,0.4,0.7,0.4c0.2,0.2,0.4,0.2,0.7,0.4l0.2,0.2c0.2,0,0.2,0.2,0.4,0.2c0.2,0.2,0.2,0.4,0.4,0.4
		c0.2,0.2,0.4,0.2,0.7,0.4v0.2l0.2,0.2c0,0.2-0.2,0.4,0.2,0.7c0.2,0.2,0.4,0.4,0.7,0.4c0.4,0,0.7,0,1.1,0.2c0.9,0.2,1.4,0.2,2.1,0.7
		c-0.2-0.2-0.4-0.2-0.4-0.4l0.2,0.2c0,0,0.2,0,0.2,0.2c0.2,0.2,0.2,0.4,0.2,0.4c0.2,0.2,0.4,0.4,0.7,0.7l0.2,0.2
		c0,0.2,0,0.2,0.2,0.4c0.2,0.4,0.7,0.7,1.1,0.9c0.2,0,0.7,0,0.9,0.2c0.2,0,0.2,0,0.4,0s0.2,0,0.4,0l0,0c0.4,0,0.2,0.2,0.4,0.4
		s0.4,0.4,0.7,0.4c0.2,0,0.7,0,0.9,0s0.4,0.2,0.7,0.7c0.2-0.2,0.4-0.2,0.9-0.2c0.2,0,0.2,0,0.4,0l0.2,0.2c0.2,0,0.4,0.2,0.7,0.4
		c0.2,0,0.2,0,0.4,0s0.2,0.2,0.4,0.2s0.7,0,0.9,0.2c0.2,0,0.2,0.2,0.4,0.4c0.2,0,0.2,0.2,0.2,0.4c0.2,0.2,0.2,0,0.4,0s0.2,0,0.2,0
		c0.2,0,0.2,0,0.4,0s0.2,0.2,0.4,0.2s0.4,0,0.4,0c0.2,0,0.4-0.2,0.7-0.2c0.2,0,0.2,0.2,0.2,0.2s0.2,0,0.2,0.2l0.2,0.2
		c0.2,0,0.2,0,0.4,0.2s0.4,0.2,0.7,0.4c0.7,0,1.1-0.4,1.7-0.2c0.2,0,0.2,0,0.4,0c0.2,0,0.2,0.2,0.2,0.2c0.2,0.2,0.4,0,0.7-0.2
		c0.2-0.2,0.4-0.2,0.9-0.2c0.2,0,0.2,0,0.4,0s0.2-0.2,0.4,0c0-0.9,1.2-0.4,1.7-0.4c0.5,0,0.9,0,1.2-0.2c0.2,0,0.2-0.2,0.4-0.2
		s0.4,0,0.7,0c0.4,0,0.9,0,1.1-0.2c0.2,0,0.2-0.2,0.2-0.2c0.2,0,0.4,0,0.7,0c0.4,0,0.9,0,1.1-0.2c0.2,0,0.2-0.2,0.4-0.4
		s0.2-0.2,0.4-0.2c0.4-0.2,0.4-0.4,0.7-0.9c0.2-0.4,0.4-0.7,0.2-1.1c-0.4-0.9-0.2-1.7-0.2-2.5c0-0.2,0-0.4-0.2-0.7
		c0-0.2,0-0.4,0-0.7c0-0.4-0.2-0.9-0.2-1.2c0-0.2,0-0.4,0.2-0.7c0-0.2,0-0.4,0-0.7c0-0.2,0.2-0.4,0.2-0.7c0-0.2,0-0.4,0-0.7
		s0.2-0.4,0.2-0.7c0-0.2,0.2-0.4,0.2-0.7c0.2-0.4,0.7-0.7,0.7-1.1c0-0.2,0-0.4,0-0.7c0-0.2,0.2-0.2,0.2-0.2c0.2,0,0.4,0,0.4-0.2
		C268.4,503.4,268.5,503.2,268.4,503.2L268.4,503.2L268.4,503.2L268.4,503.2L268.4,503.2L268.4,503.2L268.4,503.2
		C268.4,502.9,268.5,503.4,268.4,503.2z"/>
	<path id="guadeloupe" fill="#C6C6C6" stroke="#FFFFFF" stroke-width="0.25" stroke-miterlimit="10" d="M232.4,312.4l-0.2-0.4
		l-0.4-0.2l-0.2-0.2l-0.2,0.2l-0.7,0.4v0.4l-0.4,0.4l0.2,0.2h0.4l0.4,0.2l0.2,0.2l0.4-0.2l0.2-0.7h0.2l0.4-0.2v-0.4L232.4,312.4
		L232.4,312.4z M233.5,313.7L233.5,313.7l-0.2,0.2l0.2,0.4h0.4l-0.2-0.4L233.5,313.7L233.5,313.7z M234.7,313.5L234.7,313.5
		l-0.4,0.4v0.4l0.2-0.2l0.2,0.2h0.4v-0.2l-0.2-0.2L234.7,313.5L234.7,313.5z M220.5,289.5L220.5,289.5l-0.2,0.2l0.2,0.2l0.2-0.2
		L220.5,289.5L220.5,289.5L220.5,289.5z M234.5,277.3L234.5,277.3l0.9-0.2l0.2-0.2l-0.2-0.2h-0.2l-0.5-0.2l-0.2,0.2l-0.4,0.4v0.2
		L234.5,277.3L234.5,277.3z M221.5,275.7L221.5,275.7V275h-0.4v0.7H221.5L221.5,275.7z M234.7,311.4V311h-0.7l-0.2,0.4l0.2,0.2
		L234.7,311.4L234.7,311.4z M268.4,288.9L268.4,288.9l0.9,0.2v-0.4L268.4,288.9L268.4,288.9z M236,310.7v0.4l0.2,0.2l-0.2,0.4
		l-0.4-0.2v-0.4l-0.2-0.2l-0.4,0.4l0.4,0.2l-0.2,0.4l-0.4,0.2h-0.7l-0.2,0.4l0.2,0.4h0.4l0.4-0.4h0.4h0.2l0.2-0.2V312l0.4-0.2
		l0.2-0.4L236,310.7L236,310.7L236,310.7z M268,289.3l-0.4-0.2l-0.2,0.2l0.2,0.2l0.7,0.2l0.7-0.2l0.4-0.2l-0.4-0.2L268,289.3
		L268,289.3z M275.3,277.1l-0.2-0.4v-0.4h-0.7l-0.2,0.4h-0.4l-0.4,0.2l-0.7,0.2l-0.7,0.4l-0.7,0.4L271,278h-0.7H270l-0.2,0.4
		l-0.4,0.2l-0.4-0.2l-0.2,0.7h-0.4l0.2,0.4l-0.2,0.4l0.2,0.2l0.4-0.4h0.4l0.9-0.4l1.1-0.4l0.9-0.2l0.7-0.4l0.9-0.7l0.7-0.2l0.7-0.2
		l0.7-0.7L275.3,277.1L275.3,277.1z M262.9,283.8L262.9,283.8l-0.7-0.2h-0.4l-1.1-0.7l-0.9-0.4l-0.9-0.4l-0.7-0.9l-0.2-0.7l-0.2-0.2
		v-0.4l-0.2-0.4h-0.4v-0.4h-0.7l-0.2-0.4h-0.4l-0.4-0.4h-0.2l-0.7-0.4l-0.4-0.2h-1.2l-0.7-0.2L252,278l-0.4-0.4h-0.9h-0.4l-0.2-0.4
		l-0.7-0.2l-0.2-0.4l-0.7-0.9l-0.4-0.7l-0.2-0.7l-0.2-0.4v-0.9l0.2-0.4l0.2-1.2v-1.7l-0.2-0.4h-0.4l0.2-0.4v-0.7l-0.4-0.2v-0.4
		l-0.4-0.4l-1.1-0.9l-0.4-0.4l-0.4,0.2l-0.2-1.1h-0.2l-0.4,0.2l-0.4-0.2l-0.2,0.2l-0.2-0.7l-0.7-0.2l-0.4,0.4l-0.2,0.4l-0.9,0.7
		l-0.9,0.4v0.2l-0.2,0.4l-0.9,0.2l-0.9,1.1v0.7l-0.4,0.9l0.2,0.2l0.2,0.9l0.2,0.7v0.9l0.4,0.7l1.1,0.4l0.4,0.4l0.4,0.7l-0.4,0.7
		l0.2,0.2l-0.2,0.4l0.4,0.2l-0.2,0.4h-0.7v0.4h-0.7l-0.4-0.2l-0.2,0.2l-0.9,0.9l-0.2,0.9v0.9l-0.4,0.7l-0.2,0.2l0.2,0.4l-0.4,0.4
		l0.2,0.7h-0.4l-0.2-0.4h-0.4h-0.7l-0.7,0.2l-0.2,0.7l-0.2,0.4h-0.7v-0.2v-0.7l-0.4,0.7l-0.4,0.4H233l0.2-0.4l0.2-0.4H233l-0.2,0.2
		l-0.2-0.4l0.2-0.4v-0.7l0.2,0.2v0.4l0.2-0.2l0.4-0.9l0.4-0.4h-0.7l-0.9,0.2l-0.4-0.2l-0.4-0.4l-0.7-0.2v-0.7l-0.4-0.2l-0.4,0.2
		h-0.4l-0.2,0.2l-0.4,0.4l-0.2-0.7l-0.4-0.2l-0.2,0.4l-0.4-0.4l-0.4-0.4l-0.9-0.2l-0.7-0.2l-0.2-0.7h-0.2v-0.4l-0.7-0.2h-0.7
		l-0.2-0.2h-0.4v0.7l-0.7-0.2l-0.4-0.2l-0.7,0.7h-0.9l-0.4,0.9l-0.4,0.7v0.4l-0.2,0.2l-0.4,0.2l0,0l0.2,0.2l0.2,0.2l-0.2,0.2
		l-0.4,0.2v0.9l0.2,1.1l-0.2,0.4l-0.4,0.2l0.2,1.1l0.2,0.9l0.4,0.9l0.4,0.2h0.4l-0.2,0.9l0.4,0.4l-0.2,0.4l-0.2,0.7v0.2l0.2,0.4v1.1
		l0.7,0.2v1.2v0.9v0.7l0.4,0.4v0.7l-0.2,0.2l0.2,0.4v0.7l-0.2,0.7l0.4,0.7v0.4h0.4l-0.2,0.7v0.4v1.1l0.4,0.9l0.9,1.1l0.4,0.9
		l0.4,1.1l0.7,0.7l0.9,0.7l0.4,0.4l0.4,0.7l0.2,0.9v0.4l0.4,0.2h0.4h0.7l0.4-0.2l0.2-0.4h0.4l0.4-0.4l0.4-0.2h0.4v0.4l0.4-0.4v-0.2
		h0.2l0.2,0.2h0.4l0.7-0.2h0.4l0.2-0.2h0.4l-0.2-0.4l0.4-0.4l0.2-0.4l0.7-0.4l0.2-0.4l0.4-0.2l0.7-0.7l0.2-0.4l0.2-0.2l0.7-0.7
		l0.2-0.7l0.4-0.9l0.2-0.4l-0.2-0.7l-0.2-0.7l0.2-0.4l-0.2-0.2l0.2-0.9v-0.4l-0.4-0.4v-0.4l-0.4-0.2V294l0.4-0.4l0.2-0.2V293
		l-0.4-0.2l0.1-1l-1.1-0.2l0.2-0.2v-0.4l-0.4-0.4l-0.2-0.4v-0.7l0.4-0.4l-0.2-0.2H235l-0.2-0.7l0.2-0.9l0.2-0.2l0.2-0.4l-0.4-0.2
		l0.2-0.4V286l0.2-0.9l0.2-0.4l0.2,0.2h0.2l0.2-0.2h0.2l0.2,0.2h0.2l0.2-0.2l0.7,0.2l0.4,0.2l-0.2-0.4l-0.2-0.2l0.2-0.2l-0.2-0.2
		l-0.2-0.4h0.4l0.2,0.2l0.4,0.4l0.2,0.7l0.4,0.4l0,0l0.2,0.7l0.2,0.4h0.4l0.4-0.2l0.2,0.2v0.4v0.4l0.9,0.2h0.9l0.7,0.2l0.7,0.2
		l0.7-0.2l0.7-0.2l0.4-0.4h1.7l0.7-0.4l0.4-0.2l0.2-0.2l0.4,0.2l0.2-0.4h1.2v-0.2l0.7-0.2l0.9-0.4l0.7,0.2l0.4-0.4l0.9-0.2h0.4
		l0.9,0.2l0.7-0.2l1.9-0.4l0.7-0.2l0.7-0.2l0.4-0.2h1.1l0.7,0.2h0.4h0.4l0.9,0.4h1.2l0.7,0.2l0.4,0.2l0.4-0.2l-0.2-0.4h-1.8V283.8z
		 M261.8,305.9l-0.9-0.4l-0.7-0.9l-0.4-0.4l-0.2-0.9l-0.7-0.4l-0.7-0.2l-0.7-0.4l-0.9-0.7h-0.4l-0.7,0.2l-0.9,0.2l-0.2,0.7l-0.4,0.9
		l-0.7,0.2l-0.2,0.4v0.4v0.9l-0.4,0.4l-0.7,0.7v0.2v0.9l0.4,0.9v1.1l0.4,0.7l0.7,0.7h0.7l0.7,0.4l1.1,0.4l0.9,0.2l0.9-0.2l1.2-0.4
		l0.7-0.2l0.9-0.7l0.2-0.7l1.1-0.2l0.4-0.9l0.2-1.2l-0.2-0.9L261.8,305.9L261.8,305.9z"/>
</g>
<polyline fill="none" stroke="#000000" stroke-width="0.5" stroke-miterlimit="10" points="219.2,240.4 284.1,240.4 284.1,528.4 "/>
<line fill="none" stroke="#000000" stroke-width="0.5" stroke-miterlimit="10" x1="684.1" y1="478.2" x2="732.4" y2="430.1"/>
</svg>
